<?xml version="1.0" standalone="no"?>
<!DOCTYPE svg PUBLIC "-//W3C//DTD SVG 1.1//EN" "http://www.w3.org/Graphics/SVG/1.1/DTD/svg11.dtd" >
<!--
2013-9-30: Created.
-->
<svg>
    <metadata>
        Created by iconfont
    </metadata>
    <defs>

        <font id="iconfont" horiz-adv-x="1024">
            <font-face
                    font-family="iconfont"
                    font-weight="500"
                    font-stretch="normal"
                    units-per-em="1024"
                    ascent="896"
                    descent="-128"
            />
            <missing-glyph/>

            <glyph glyph-name="x" unicode="x" horiz-adv-x="1001"
                   d="M281 543q-27 -1 -53 -1h-83q-18 0 -36.5 -6t-32.5 -18.5t-23 -32t-9 -45.5v-76h912v41q0 16 -0.5 30t-0.5 18q0 13 -5 29t-17 29.5t-31.5 22.5t-49.5 9h-133v-97h-438v97zM955 310v-52q0 -23 0.5 -52t0.5 -58t-10.5 -47.5t-26 -30t-33 -16t-31.5 -4.5q-14 -1 -29.5 -0.5
t-29.5 0.5h-32l-45 128h-439l-44 -128h-29h-34q-20 0 -45 1q-25 0 -41 9.5t-25.5 23t-13.5 29.5t-4 30v167h911zM163 247q-12 0 -21 -8.5t-9 -21.5t9 -21.5t21 -8.5q13 0 22 8.5t9 21.5t-9 21.5t-22 8.5zM316 123q-8 -26 -14 -48q-5 -19 -10.5 -37t-7.5 -25t-3 -15t1 -14.5
t9.5 -10.5t21.5 -4h37h67h81h80h64h36q23 0 34 12t2 38q-5 13 -9.5 30.5t-9.5 34.5q-5 19 -11 39h-368zM336 498v228q0 11 2.5 23t10 21.5t20.5 15.5t34 6h188q31 0 51.5 -14.5t20.5 -52.5v-227h-327z"/>


            <glyph glyph-name="gouwuche" unicode="&#58880;"
                   d="M347.136 112.64q19.456 0 36.864-7.168t30.72-19.968 20.48-30.208 7.168-36.864-7.168-36.864-20.48-30.208-30.72-20.48-36.864-7.68q-20.48 0-37.376 7.68t-30.208 20.48-20.48 30.208-7.168 36.864 7.168 36.864 20.48 30.208 30.208 19.968 37.376 7.168zM773.12 110.592q19.456 0 37.376-7.168t30.72-19.968 20.48-30.208 7.68-36.864-7.68-36.864-20.48-30.208-30.72-20.48-37.376-7.68-36.864 7.68-30.208 20.48-20.48 30.208-7.68 36.864 7.68 36.864 20.48 30.208 30.208 19.968 36.864 7.168zM945.152 692.224q28.672 0 44.544-7.68t22.528-18.944 6.144-24.064-3.584-22.016-12.8-37.888-22.016-62.976-24.064-68.096-17.92-53.248q-13.312-40.96-33.792-56.832t-50.176-15.872l-34.816 0-66.56 0-87.04 0-95.232 0-253.952 0 15.36-92.16 516.096 0q49.152 0 49.152-41.984 0-20.48-9.728-35.328t-38.4-14.848l-49.152 0-95.232 0-117.76 0-119.808 0-98.304 0-56.32 0q-20.48 0-34.304 9.216t-23.04 24.064-14.848 32.256-8.704 32.768q-1.024 6.144-5.632 29.696t-11.264 58.88-14.848 78.848-16.384 87.552q-19.456 103.424-44.032 230.4l-76.8 0q-15.36 0-25.6 7.68t-16.896 18.432-9.216 23.04-2.56 22.528q0 20.48 13.824 33.792t37.376 13.312l22.528 0 20.48 0 25.6 0 34.816 0q20.48 0 32.768-6.144t19.456-15.36 10.24-19.456 5.12-17.408q2.048-8.192 4.096-23.04t4.096-30.208q3.072-18.432 6.144-38.912l700.416 0z"
                   horiz-adv-x="1024"/>


            <glyph glyph-name="jian" unicode="&#58885;"
                   d="M512.154 818.817c-246.164 0-446.442-200.277-446.442-446.442 0-246.166 200.277-446.442 446.442-446.442 246.165 0 446.442 200.276 446.442 446.442-0.001 246.165-200.278 446.442-446.442 446.442zM512.154-18.262c-215.4 0-390.637 175.237-390.637 390.639 0 215.4 175.236 390.637 390.637 390.637 215.402 0 390.636-175.236 390.636-390.637 0-215.403-175.236-390.639-390.636-390.639zM679.569 400.278l-334.831 0c-15.423 0-27.903-12.479-27.903-27.902 0-15.396 12.479-27.903 27.903-27.903l334.831 0c15.423 0 27.903 12.507 27.903 27.903 0 15.422-12.48 27.902-27.903 27.902z"
                   horiz-adv-x="1024"/>


            <glyph glyph-name="iconfontsousuo1" unicode="&#58895;"
                   d="M1021.184-125.696l-91.904-91.584-202.752 201.92c-75.904-56.64-169.216-91.392-271.424-91.392-251.392 0.064-455.104 203.008-455.104 453.376 0 250.432 203.712 453.376 455.168 453.376 251.328 0 455.040-202.944 455.040-453.376 0-101.76-34.88-194.752-91.712-270.336l202.688-201.984zM455.168 670.4c-179.584 0-325.056-144.96-325.056-323.84 0-178.816 145.472-323.84 325.056-323.84 179.456 0 325.056 145.024 325.056 323.84 0 178.944-145.6 323.84-325.056 323.84v0z"
                   horiz-adv-x="1024"/>


            <glyph glyph-name="sousuo" unicode="&#58936;"
                   d="M1015.111051-125.596118 723.051275 168.387473c118.749568 156.845211 106.645902 381.213281-36.368302 524.226462-156.304905 156.304905-409.726685 156.304905-566.031591 0-156.304905-156.26909-156.304905-409.691893 0-565.996798 142.963039-142.963039 367.155101-155.137313 523.988032-36.58115l292.124244-294.01429c9.598612-9.597589 25.205055-9.597589 34.801621 0l43.546795 43.546795C1024.743432-150.799126 1024.743432-135.19473 1015.111051-125.596118zM194.804243 198.602635c-114.784256 114.783233-114.784256 300.878628 0 415.627069 114.78528 114.784256 300.841789 114.784256 415.628092 0 114.78528-114.748441 114.78528-300.843836 0-415.627069C495.646032 83.817356 309.589522 83.817356 194.804243 198.602635z"
                   horiz-adv-x="1024"/>


            <glyph glyph-name="feiji" unicode="&#58944;"
                   d="M706.624-207.2 564.416 190.432 418.56 52.512l24.32-176.96-74.176-75.52-120.448 194.56-210.112 143.232L111.36 212.896l185.6-36.544 137.344 152.768L33.216 477.728l120 122.24 444.736-86.336 143.936 144c78.4 79.296 153.664 94.208 199.488 47.488 18.112-18.368 68.736-87.552-44.992-203.392l-145.344-145.28 76.288-440.704L706.624-207.2zM591.68 304.288l140.8-393.728 26.112 26.56-76.416 441.152 168.704 168.512c48.128 49.024 65.344 92.544 44.8 113.408-5.376 5.44-11.136 7.872-18.752 7.872-10.496 0-40.192-5.376-89.728-55.552L619.136 444.256 174.72 530.592 148.032 503.392l396.8-147.072-224.576-249.792-172.224 33.92 151.104-106.368 73.728-119.04-22.208 161.344L591.68 304.288z"
                   horiz-adv-x="1024"/>


            <glyph glyph-name="shop" unicode="&#58923;"
                   d="M5.821 457.96c0-53.323 40.478-97.755 95.068-110.584l0-376.505-63.378 0c-17.46 0-31.69-12.827-31.69-28.665 0-15.836 14.23-28.646 31.69-28.646l950.684 0c17.577 0 31.69 12.827 31.69 28.646s-14.112 28.648-31.691 28.648l-63.377 0 0 376.52c54.59 12.829 95.068 57.261 95.068 110.584l0 28.647-1014.064 0 0-28.646zM639.611 343.355c70.072 0 126.758 51.311 126.758 114.605 0-53.323 40.478-97.755 95.068-110.584l0-376.505-475.342 0 0 372.483c70.072 0 126.758 51.311 126.758 114.605 0-63.295 56.805-114.605 126.758-114.605zM354.405 347.375l0-376.505-190.136 0 0 376.505c54.59 12.829 95.068 57.261 95.068 110.584 0.001-53.322 40.478-97.754 95.068-110.584zM893.127 744.482l-760.547 0-126.759-229.211 1014.064 0-126.758 229.211zM273.568 680.799l-63.379-114.606c-2.839-5.037-8.418-7.944-14.23-7.944-2.35 0-4.767 0.439-7.049 1.504-7.791 3.516-11.02 12.152-7.048 19.2l63.378 114.606c3.955 7.048 13.42 9.905 21.228 6.44 7.842-3.532 10.935-12.152 7.099-19.2zM400.325 680.799l-63.378-114.606c-2.84-5.037-8.418-7.944-14.231-7.944-2.35 0-4.766 0.439-7.048 1.504-7.791 3.516-11.02 12.152-7.049 19.2l63.379 114.606c3.955 7.048 13.487 9.905 21.227 6.44 7.844-3.532 10.936-12.152 7.099-19.2zM528.706 572.565c0-7.944-7.065-14.332-15.853-14.332-8.738 0-15.853 6.372-15.853 14.332l0 114.606c0 7.944 7.115 14.332 15.853 14.332 8.788 0 15.853-6.372 15.853-14.332l0-114.606zM710.663 560.025c-2.467-1.234-5.07-1.792-7.673-1.792-5.577 0-11.02 2.687-13.859 7.436l-69.329 114.606c-4.208 6.946-1.352 15.667 6.305 19.419 7.555 3.803 17.324 1.352 21.549-5.646l69.327-114.605c4.074-6.93 1.353-15.668-6.32-19.419zM836.812 559.754c-2.247-1.065-4.58-1.504-7.064-1.504-5.814 0-11.391 2.907-14.112 7.944l-63.379 114.605c-3.955 7.048-0.744 15.668 7.048 19.2 7.691 3.515 17.325 0.675 21.296-6.44l63.379-114.606c3.835-7.048 0.759-15.684-7.167-19.199zM275.19 138.429l0 66.016c-9.295 5.053-15.852 13.775-15.852 24.285 0 15.838 14.23 28.648 31.689 28.648 17.577 0 31.69-12.829 31.69-28.648 0-10.51-6.506-19.249-15.853-24.304l0-66.016c9.347-5.053 15.853-13.775 15.853-24.304 0-15.838-14.112-28.646-31.69-28.646-17.459 0-31.689 12.827-31.689 28.646 0 10.529 6.557 19.267 15.852 24.322zM132.58 801.795c0 15.837 14.23 28.647 31.69 28.647l697.168 0c17.577 0 31.69-12.811 31.69-28.647s-14.112-28.647-31.69-28.647l-697.168 0c-17.46-0.017-31.69 12.811-31.69 28.647zM561.241 189.96l-22.394 20.265 89.626 81.039 22.394-20.265-89.626-81.039zM561.241 108.919l-22.394 20.265 179.235 162.08 22.394-20.265-179.235-162.08zM718.099 210.225l22.394-20.265-89.626-81.041-22.394 20.265 89.626 81.041z"
                   horiz-adv-x="1024"/>


            <glyph glyph-name="fenxiang" unicode="&#58925;"
                   d="M893.407 312.977c0.001 0.091 0.007 0.181 0.007 0.273 0 19.905-16.137 36.042-36.042 36.042s-36.042-16.137-36.042-36.042c0-0.092 0.006-0.182 0.007-0.273h-0.007v-285.482c0-25.44-20.814-46.255-46.254-46.255h-525.080c-25.44 0-46.254 20.815-46.254 46.255l-0 525.078c0 25.44 20.815 46.254 46.254 46.254l262.539 0.010c19.881 0.213 35.933 16.387 35.933 36.318 0 19.931-16.053 36.105-35.933 36.318v0.010l-278.773 0c-56.473 0-102.679-46.205-102.679-102.679v-557.546c0-56.472 46.205-102.679 102.679-102.679h557.545c56.473 0 102.679 46.205 102.679 102.679l0 301.718h-0.579zM883.34 507.899v0 0l-154.163 154.097c-14.19 14.184-37.192 14.179-51.376-0.011v0c-14.184-14.19-14.179-37.192 0.011-51.376l88.041-88.003c-187.28-6.435-349.88-144.549-380.477-336.543-0.651-4.085-1.235-8.166-1.755-12.241-2.308-18.089 10.27-34.719 28.279-37.588l4.907-0.782c19.004-3.029 36.469 10.406 38.928 29.492 0.415 3.223 0.88 6.452 1.395 9.684 25.349 159.065 161.439 272.931 317.101 275.502l-96.363-96.404c-14.184-14.19-14.179-37.192 0.011-51.376v0c14.19-14.184 37.192-14.179 51.376 0.011l154.097 154.162c14.183 14.191 14.178 37.193-0.012 51.377z"
                   horiz-adv-x="1024"/>


            <glyph glyph-name="qq" unicode="&#59005;"
                   d="M1018.24 309.6c-5.12 270.72-225.92 491.52-496.64 496.64-287.36 5.12-520.96-228.48-515.84-515.84 5.12-270.72 225.92-491.52 496.64-496.64C789.76-211.36 1023.36 22.24 1018.24 309.6zM751.969 155.244c-8.45-11.194-31.614 2.248-48.19 38.015-4.607-16.569-15.247-41.865-39.325-73.976 40.284-9.196 51.773-48.935 38.212-70.658-9.559-15.307-31.429-27.897-69.163-27.897-67.1 0-96.743 18.035-109.969 30.595-2.687 2.741-6.585 4.063-11.53 4.074-4.956-0.011-8.846-1.332-11.541-4.074-13.229-12.56-42.866-30.595-109.979-30.595-37.719 0-59.608 12.589-69.167 27.897-13.554 21.723-2.06 61.462 38.23 70.658-24.075 32.107-34.714 57.407-39.325 73.976-16.569-35.767-39.74-49.212-48.179-38.015-6.93 9.177-9.12 29.835-8.414 44.018 3.926 53.945 40.128 99.138 61.037 122.515-2.889 6.8-9.969 46.165 17.321 73.024-0.043 0.645-0.036 1.283-0.036 1.909 0 105.95 75.412 182.216 170.052 182.562 94.628-0.346 170.041-76.609 170.041-182.562 0-0.626 0-1.264-0.043-1.909 27.295-26.859 20.225-66.224 17.321-73.024 20.924-23.377 57.123-68.57 61.042-122.515C761.082 185.079 758.889 164.422 751.969 155.244z"
                   horiz-adv-x="1024"/>


            <glyph glyph-name="lianxifangshi" unicode="&#58976;"
                   d="M681.358366 500.520237c12.645599-15.052191 26.195332-30.407123 40.646131-46.063774 12.042162-13.850429 25.441546-29.205361 40.197132-46.067865 14.751494-16.862504 29.956079-34.021612 45.611707-51.486531 19.872533-22.879493 36.281947-43.354441 49.229265-61.417683 12.947318-18.067333 23.181212-34.624027 30.709864-49.681331 7.528652-15.054236 12.645599-28.904665 15.354932-41.550264 2.709333-12.645599 4.065534-25.290176 4.065534-37.935775l0-58.709373c0-18.064265-3.010029-34.322308-9.03111-48.777198-6.021081-14.450798-14.304541-26.945027-24.839132-37.484731-10.538681-10.538681-22.580843-18.665657-36.131598-24.386042-13.549733-5.719362-27.849161-8.584157-42.906465-8.584157L236.958217-11.624485c-16.259066 0-31.763323 2.713424-46.515841 8.13209-14.755586 5.417643-27.698813 13.097666-38.840931 23.033932-11.137005 9.935244-20.022881 21.82808-26.647399 35.674418-6.618382 13.852475-9.931152 29.508103-9.931152 46.973021l0 69.549773c0 14.449776 1.35211 28.301227 4.06042 41.549242 2.709333 13.244946 7.680023 27.096398 14.906956 41.546173 7.222842 14.454889 17.159109 29.96017 29.804708 46.520954 12.645599 16.559762 28.602946 34.774375 47.873064 54.646908 15.655628 16.85739 31.764346 33.870241 48.325131 51.02935 16.560785 17.164222 31.462627 32.66848 44.711664 46.520954 15.655628 16.259066 30.708842 31.914694 45.163731 46.967907L681.358366 500.520237 681.358366 500.520237zM511.549979 158.189016c15.655628 0 30.407123 3.010029 44.258574 9.03111 13.847361 6.021081 25.890545 14.153171 36.127507 24.386042 10.237985 10.239008 18.364961 22.431517 24.391156 36.584688 6.021081 14.148057 9.03111 29.056036 9.03111 44.711664 0 15.655628-3.010029 30.407123-9.03111 44.259597-6.026195 13.846338-14.153171 25.893613-24.391156 36.126485-10.237985 10.237985-22.280147 18.369052-36.127507 24.391156-13.850429 6.021081-28.602946 9.032133-44.258574 9.032133-15.656651 0-30.562585-3.011052-44.711664-9.032133-14.153171-6.021081-26.346703-14.153171-36.584688-24.391156-10.237985-10.232871-18.364961-22.280147-24.386042-36.126485-6.021081-13.851452-9.032133-28.603969-9.032133-44.259597 0-15.655628 3.011052-30.562585 9.032133-44.711664 6.021081-14.153171 14.14908-26.34568 24.386042-36.584688 10.237985-10.232871 22.431517-18.364961 36.584688-24.386042C480.987394 161.199045 495.893328 158.189016 511.549979 158.189016L511.549979 158.189016zM964.077104 609.815075l0-56.908265c0-15.655628-5.569014-28.900574-16.712156-39.740974-11.137005-10.8404-24.537413-16.259066-40.193041-16.259066L794.263602 496.906771c-15.655628 0-28.900574 5.418666-39.740974 16.259066-10.8404 10.8404-16.259066 24.085346-16.259066 39.740974l0 56.908265L285.736437 609.815075l0-56.908265c0-15.655628-5.418666-28.900574-16.259066-39.740974-10.8404-10.8404-24.085346-16.259066-39.745065-16.259066L116.82707 496.906771c-15.655628 0-29.055013 5.418666-40.193041 16.259066C65.49191 524.006237 59.922896 537.251182 59.922896 552.906811l0 56.908265 0 1.805199c0 7.227956 1.805199 13.398362 5.418666 18.516332 3.613467 5.122061 8.13209 9.785918 13.549733 14.0018 5.418666 4.212813 11.439747 7.977651 18.064265 11.289399 6.624518 3.310725 13.249037 7.076585 19.872533 11.292467 6.624518 3.608353 21.527384 11.589072 44.711664 23.933975 23.185303 12.34388 52.386573 25.14085 87.614038 38.387842 35.227465 13.249037 75.274249 24.98948 120.131147 35.226442 44.863035 10.239008 92.583705 15.354932 143.166102 15.354932 57.80933 0 109.446209-5.115924 154.906545-15.354932 45.46545-10.237985 84.908796-21.978428 118.327993-35.226442 33.422266-13.248014 60.215922-26.044984 80.390173-38.387842 20.17016-12.344903 33.869219-20.325622 41.097175-23.933975 7.227956-4.215882 14.14908-7.981742 20.773598-11.292467 6.624518-3.312771 12.645599-7.076585 18.068356-11.289399 5.418666-4.215882 9.785918-8.880762 13.093575-14.0018 3.311748-5.116947 4.97069-11.288376 4.97069-18.516332L964.079149 609.815075 964.077104 609.815075zM964.077104 609.815075"
                   horiz-adv-x="1024"/>


            <glyph glyph-name="bag" unicode="&#59112;"
                   d="M896 576l-128 0 0 9C768 722 658 832 521 832l-16 0C368 832 256 722 256 585l0-9L128 576 64-64l896 0L896 576zM320 585c0 101.4 83.6 183 185 183l15 0 1 0c101.4 0 183-81.6 183-183l0-9L320 576 320 585zM135.6 0l49.8 512L256 512l0-72.6c-19.2-11-32-31.8-32-55.4 0-35.4 28.6-64 64-64s64 28.6 64 64c0 23.6-12.8 44.4-32 55.4L320 512l384 0 0-72.6c-19.2-11-32-31.8-32-55.4 0-35.4 28.6-64 64-64s64 28.6 64 64c0 23.6-12.8 44.4-32 55.4L768 512l70.8 0 49.8-512L135.6 0z"
                   horiz-adv-x="1024"/>


            <glyph glyph-name="ss" unicode="&#58916;"
                   d="M918.845055 57.985902 748.292658 228.524996c44.350091 60.246129 70.584592 134.609791 70.584592 214.985376 0 200.382796-163.039283 363.416963-363.432313 363.416963s-363.427196-163.034167-363.427196-363.416963c0-200.388936 163.034167-363.42208 363.427196-363.42208 80.378655 0 154.744363 26.234501 214.992539 70.583568l170.550351-170.537048c10.748808-10.743692 24.832572-16.121166 38.925544-16.121166 14.093996 0 28.176736 5.377474 38.930661 16.121166C940.339602 1.638569 940.339602 36.493401 918.845055 57.985902zM181.474145 443.510372c0 151.063531 122.903168 273.966699 273.971815 273.966699s273.976932-122.903168 273.976932-273.966699c0-151.065578-122.908284-273.967722-273.976932-273.967722S181.474145 292.444794 181.474145 443.510372z"
                   horiz-adv-x="1024"/>


            <glyph glyph-name="fuwu" unicode="&#58914;"
                   d="M886.016 719.04c-52.928 52.928-123.392 82.048-198.432 82.048s-145.536-29.152-198.464-82.08l-195.872-195.84c-12.64-12.64-12.64-33.248 0-45.888 6.144-6.112 14.272-9.504 22.944-9.504s16.832 3.36 22.944 9.504l195.84 195.84c40.672 40.672 94.88 63.104 152.576 63.104s111.872-22.4 152.544-63.072c84.128-84.128 84.128-220.992 0-305.152L512.064 39.936 183.968 367.968c-84.128 84.128-84.128 221.024 0 305.12 40.608 40.608 94.496 62.976 151.744 62.976 10.336 0 20.832-0.736 31.168-2.208 1.536-0.224 3.072-0.32 4.608-0.32 16.032 0 29.824 12 32.096 27.904 2.496 17.728-9.888 34.176-27.584 36.672-13.056 1.888-26.336 2.816-39.552 2.816-29.664 0-58.816-4.544-86.688-13.536-42.4-13.696-80-36.704-111.712-68.384C28.64 609.6 28.64 431.52 138.08 322.112l351.008-351.008c6.112-6.112 14.272-9.504 22.944-9.504 8.672 0 16.8 3.36 22.944 9.504l351.008 351.008C995.456 431.552 995.424 609.6 886.016 719.04z"
                   horiz-adv-x="1024"/>


            <glyph glyph-name="bag1" unicode="&#58901;"
                   d="M794.000394 11.912423l63.990343 0-11.183702 95.413998c-1.614776 7.954151 4.804418 15.909326 12.797455 17.484192 7.99406 1.574867 15.98812-4.764509 17.601872-12.719683l14.41223-111.323323c0-4.764509-1.614776-7.915266-3.229551-11.104908-6.379284-3.189642-11.183702-6.379284-14.373344-6.379284l-80.017348 0c-7.99406 0-14.41223 6.379284-14.41223 14.333436S786.006334 11.912423 794.000394 11.912423zM865.984796 632.04457 728.396299 632.04457l0-42.922536c1.574867-22.248701-17.601872-39.732893-40.008162-39.732893-22.40629 0-40.008162 17.484192-40.008162 39.732893L648.379974 632.04457 373.123161 632.04457l0-42.922536c0-22.248701-17.601872-39.732893-40.008162-39.732893s-40.008162 17.484192-40.008162 39.732893L293.106836 632.04457 157.092182 632.04457 102.67179-48.494304l817.734422 0L865.984796 632.04457zM510.750544 816.494304c-65.132351 0-118.331941-43.591777-133.139167-103.329263l266.119721 0C628.728421 771.995879 575.686421 816.494304 510.750544 816.494304zM992.428477-113.70545c-6.419193-9.530041-16.027006-14.29455-28.825483-14.29455L59.472962-128c-11.183702 0-22.40629 4.764509-28.785575 12.719683-8.032946 7.915266-11.222588 19.059059-11.222588 30.203876l59.22481 761.659345c1.574867 20.673834 19.177762 36.58316 40.008162 36.58316l177.794158 0c16.302275 103.329263 105.730961 182.833936 214.258614 182.833936 108.487745 0 197.916431-79.504672 214.218705-182.833936l177.833043 0c20.791515 0 38.39441-15.909326 40.008162-36.58316l60.8007-760.083455C1005.226955-94.606482 1000.422537-105.751299 992.428477-113.70545z"
                   horiz-adv-x="1024"/>


            <glyph glyph-name="weixin" unicode="&#58942;"
                   d="M0 392.999588C0 670.799045 225.221997 896 503.183886 896L503.183886 896C781.084672 896 1006.367771 670.645307 1006.367771 392.999588L1006.367771 375.000412C1006.367771 97.200955 781.145774-128 503.183886-128L503.183886-128C225.283099-128 0 97.354693 0 375.000412L0 392.999588ZM685.535166 344.04113C675.323802 344.04113 664.932542 354.705859 664.932542 365.600377 664.932542 376.341705 675.288639 387.156222 685.535166 387.156222 701.125327 387.156222 711.480607 376.341705 711.480607 365.600377 711.480607 354.705859 701.125327 344.04113 685.535166 344.04113M571.540408 344.04113C561.257902 344.04113 550.826578 354.705859 550.826578 365.600377 550.826578 376.341705 561.257902 387.156222 571.540408 387.156222 587.277752 387.156222 597.485849 376.341705 597.485849 365.600377 597.485849 354.705859 587.277752 344.04113 571.540408 344.04113M804.761534 317.035899C804.761534 403.269489 721.835887 473.546408 628.702145 473.546408 530.080856 473.546408 452.457138 403.232893 452.457138 317.035899 452.457138 230.572519 530.116016 160.532195 628.702145 160.532195 649.342382 160.532195 670.161697 165.901582 690.8788 171.307565L747.708551 138.860605 732.118393 192.790217C773.727582 225.319729 804.761534 268.399077 804.761534 317.035899M359.14105 489.732866C343.588506 489.732866 327.924754 500.550789 327.924754 516.698098 327.924754 532.924555 343.588506 543.629285 359.14105 543.629285 374.692778 543.629285 385.016168 532.964555 385.016168 516.698098 385.016168 500.550789 374.692778 489.732866 359.14105 489.732866M504.169759 543.629285C519.833512 543.629285 530.116016 532.924555 530.116016 516.698098 530.116016 500.550789 519.833512 489.729462 504.169759 489.729462 488.687536 489.729462 473.100648 500.550789 473.100648 516.698098 473.100648 532.961151 488.652376 543.629285 504.169759 543.629285M615.565068 485.158377C622.297962 485.158377 628.922104 484.629864 635.582224 483.868158 617.650188 570.783453 528.393953 635.345455 426.475721 635.345455 312.554555 635.345455 219.238466 554.560399 219.238466 451.910564 219.238466 392.681353 250.269147 344.04113 302.164113 306.257975L281.450283 241.390442 353.908625 279.176999C379.81645 273.880805 400.603873 268.395674 426.475721 268.395674 432.988656 268.395674 439.431268 268.701207 445.80029 269.193124 441.772327 283.631489 439.396108 298.714962 439.396108 314.446098 439.431268 408.678875 517.160468 485.158377 615.565068 485.158377"
                   horiz-adv-x="1024"/>


            <glyph glyph-name="weibo" unicode="&#59063;"
                   d="M872.918561 741.049952C789.979594 823.98892 666.56068 891.510756 546.334481 891.510756l-5.496178 0-5.372358 0-5.225001 0c-105.0915-0.033769-131.128503-1.512447-242.652506-49.115628-38.553061-16.454764-72.90545-44.036959-105.002472-69.722968-5.665023-4.53734-8.847505-8.419763-14.09502-13.644765-15.619746-15.539928-8.937556-3.047406-29.455869-28.789697-11.894911-14.919804-18.824741-19.727297-40.458457-48.303122-45.955658-60.739363-93.084025-182.037986-93.084025-256.388345l0-5.733585 0-5.598508 0-5.438872c0.033769-109.257379 1.467421-130.552381 45.515636-237.258659l70.354348-109.922529c41.294498-47.229674 75.31022-78.626755 129.763412-111.536282 15.438621-9.332553 24.636097-12.153808 40.999786-20.019962 94.270037-45.24446 124.199697-50.875714 234.798631-50.875714 93.942579 0 208.54878 40.334637 275.381931 90.714048 97.281627 73.311703 169.59049 167.162184 200.01543 288.145629 9.152451 36.384675 14.264888 73.142857 15.518438 109.651352l0 35.639708C1013.493204 529.985886 962.741309 651.227204 872.918561 741.049952zM714.84129 212.677053c-14.648628-14.513552-26.543539-25.482371-43.653219-36.790928-16.692171-11.037381-35.425837-18.959817-54.565756-28.64234-72.90545-36.860513-192.195324-36.973076-272.211728-15.145955-65.614393 17.898649-164.18334 69.609381-164.18334 152.007019 0 95.871511 63.944358 166.204369 129.706107 225.307466 38.755676 34.83846 96.888677 68.684312 153.192008 68.684312 33.914414 0 47.151903-23.892153 47.151903-55.469336 0-14.152325-12.989849-44.37465-2.777253-44.37465 15.799848 0 144.559397 56.676837 165.268044-9.592472 7.967462-25.460882-5.225001-44.680619-7.178493-68.065212l55.029314-25.426089C781.685697 335.46561 761.449817 258.903887 714.84129 212.677053zM698.058045 507.933637c-1.771343 1.760087-11.387351 8.463766-12.988826 9.208732-16.297175 7.493671-52.761668-5.372358-52.761668 22.119787 0 33.902134 62.195527 34.252105 96.470145-0.608867 77.261665-78.570473-33.834596-141.139507-22.763446-73.616648C708.80276 482.032734 706.850292 499.163903 698.058045 507.933637zM785.060561 424.824801c0 27.356045 26.158776 86.922698-27.198455 140.145877-11.512195 11.477402-17.2335 17.514909-33.010835 25.234731-64.227814 31.453363-103.501282-9.367345-112.958678 28.767184-5.056156 20.438495 11.398608 34.014698 34.285874 34.014698 61.551868 0 97.215112-1.523703 147.69583-51.993165 37.513382-37.513382 49.227168-74.451666 49.227168-128.294968C843.101465 385.426489 785.060561 392.401344 785.060561 424.824801zM584.344167 388.677533c-22.458501 13.181207-85.275175 36.869722-115.66737 36.869722-63.910589 0-104.607476-2.573615-155.7646-43.935652-28.710902-23.214724-66.122977-60.435441-66.122977-100.284007 0-135.574768 217.768769-156.679435 325.084936-89.326445 18.564821 11.647271 35.098379 23.022343 48.234561 40.515762C665.962046 293.573501 647.734916 351.456816 584.344167 388.677533zM438.160783 214.765621c-11.703553 0-24.669866 4.592598-36.057217 5.54018 6.489808 8.847505 11.647271 4.447289 21.702278 14.355963 35.347043 34.827203-17.651009 77.194126-53.088102 39.228443-8.136308-8.734942-7.437389-13.136182-7.437389-28.620851-38.099736 27.92091-10.597359 105.397469 72.104201 105.397469 22.864754 0 49.069579-8.238638 63.729463-16.714683C567.629483 294.396239 519.711124 214.765621 438.160783 214.765621zM438.160783 292.422282c0-6.353708 0.948605-3.227508 2.77623-11.093662 7.438413-1.783623 5.225001-2.777253 11.094686-2.777253 16.906042 0 13.001105 16.793478 11.093662 24.964578C456.544479 303.515944 438.160783 303.007361 438.160783 292.422282z"
                   horiz-adv-x="1024"/>


            <glyph glyph-name="nav" unicode="&#58954;"
                   d="M170.574 746.699h874.13v-85.281h-874.13v85.281zM170.574 426.895h874.13v-85.28h-874.13v85.28zM170.574 107.091h874.13v-85.28h-874.13v85.28zM0 704.058c-0-23.55 19.091-42.64 42.64-42.64s42.64 19.091 42.64 42.64c0 0 0 0 0 0 0 23.55-19.091 42.64-42.64 42.64-23.55 0-42.64-19.091-42.64-42.64 0-0 0-0 0-0zM0 384.893c-0-23.902 19.091-43.279 42.64-43.279s42.64 19.377 42.64 43.279c0 0 0 0 0 0 0 23.902-19.091 43.279-42.64 43.279-23.55 0-42.64-19.377-42.64-43.279 0-0 0-0 0-0zM0 64.451c-0-23.55 19.091-42.64 42.64-42.64s42.64 19.091 42.64 42.64c0 0 0 0 0 0 0 23.55-19.091 42.64-42.64 42.64-23.55 0-42.64-19.091-42.64-42.64 0-0 0-0 0-0z"
                   horiz-adv-x="1039"/>


            <glyph glyph-name="youjiantou" unicode="&#58905;"
                   d="M48.614141 383.485414C48.614141 639.004444 256.478384 846.868687 512.003879 846.868687c255.51903 0 463.38198-207.864242 463.38198-463.383273 0-255.525495-207.864242-463.388444-463.38198-463.388444C256.478384-79.904323 48.614141 127.959919 48.614141 383.485414L48.614141 383.485414zM909.191758 383.485414c0 219.015758-178.173414 397.186586-397.186586 397.186586-219.020929 0-397.193051-178.172121-397.193051-397.186586 0-219.019636 178.172121-397.191758 397.193051-397.191758C731.018343-13.707636 909.191758 164.464485 909.191758 383.485414L909.191758 383.485414zM567.474424 194.752646l165.761293 163.939556c9.797818 9.667232 12.249212 23.964444 7.378747 35.979636-0.297374 0.757657-1.025293 1.353697-1.387313 2.085495-1.521778 3.075879-3.176727 6.156929-5.72897 8.737616-0.028444 0.029737-0.065939 0.029737-0.094384 0.065939-0.036202 0.029737-0.036202 0.067232-0.067232 0.100848L568.962586 570.489535c-12.907313 12.944808-33.857939 12.974545-46.796283 0.071111-6.491798-6.454303-9.733172-14.964364-9.733172-23.434343 0-8.442828 3.206465-16.914101 9.662061-23.368404l106.843798-107.177374L313.407354 416.580525c-18.302707 0-33.101576-14.828606-33.101576-33.096404 0-18.27297 14.797576-33.101576 33.101576-33.101576l317.287434 0-109.756768-108.56598c-6.556444-6.454303-9.830141-14.995394-9.830141-23.53002 0-8.409212 3.176727-16.818424 9.566384-23.272727C533.513051 182.009535 554.467556 181.878949 567.474424 194.752646L567.474424 194.752646zM567.474424 194.752646"
                   horiz-adv-x="1024"/>


            <glyph glyph-name="qq1" unicode="&#58909;"
                   d="M512 896C229.2736 896 0 666.8288 0 384c0-282.7264 229.2736-512 512-512 282.8288 0 512 229.1712 512 512C1024 666.8288 794.8288 896 512 896zM792.8832 277.7088l0-4.096 0-3.7888-0.7168-4.608-1.024-7.8848-1.3312-7.168-2.1504-6.4512-0.8192-2.6624-1.4336-3.1744-1.2288-2.2528-1.6384-2.7648-1.4336-1.7408-1.8432-2.2528-1.6384-1.7408-1.7408-1.536-2.1504-0.9216-1.8432-0.9216-1.536-0.512-1.3312 0-1.024 0-1.536 0.512-2.8672 1.4336-1.3312 0.9216-1.3312 1.024-1.536 1.3312-1.536 1.536-2.56 2.7648-2.9696 3.9936-2.3552 4.096-2.3552 3.2768-2.3552 3.7888-3.2768 6.8608-3.6864 7.0656-0.4096 0.2048-0.6144 0-1.536-1.1264-0.8192-1.8432-1.4336-2.3552-2.4576-6.8608-3.7888-9.8304-4.8128-11.776-3.584-5.8368-3.7888-6.144-4.5056-6.8608-4.8128-6.7584-2.4576-3.072-2.9696-3.2768-6.8608-6.7584 0.6144-0.6144 0.9216-0.9216 3.3792-2.048 14.2336-6.8608 6.2464-3.4816 5.9392-3.3792 5.8368-4.3008 5.2224-4.4032 2.56-1.9456 1.8432-2.2528 1.9456-2.6624 1.6384-2.8672 0.8192-2.3552 1.024-2.8672 0.4096-2.4576 0.512-2.8672-0.512-1.9456 0-1.9456-0.4096-2.048-1.024-1.8432-0.4096-1.4336-0.9216-1.7408-2.56-3.4816-2.3552-2.7648-1.8432-2.1504-1.536-1.536-3.8912-2.8672-4.4032-2.4576-4.7104-2.3552-5.0176-2.2528-5.7344-2.2528-2.9696-0.9216-2.7648-0.7168-6.5536-1.536-6.7584-1.4336-6.8608-1.4336-7.3728-1.2288-7.68-0.3072-7.8848-0.9216-7.7824 0-8.192 0-8.3968 0-8.8064 0.512-8.192 0.7168-8.8064 1.2288-8.704 0.9216-9.216 1.3312-8.9088 2.2528-8.704 1.7408-8.704 2.4576-8.9088 3.1744-8.704 2.6624-4.608 1.536-4.096 1.4336-2.56 1.024-2.56 0.512-3.2768 0-3.8912 0-8.3968 0.6144-4.1984 0.4096-5.4272 0.6144-3.4816-3.1744-4.8128-2.9696-6.4512-3.1744-7.168-3.8912-4.3008-2.1504-4.5056-1.7408-10.0352-4.096-5.4272-1.3312-5.7344-1.536-7.8848-1.536-4.9152-0.4096-5.2224-0.4096-5.4272-0.6144-6.3488-0.3072-6.144 0L416.768 97.4848l-13.5168 0-14.7456 0.3072-14.2336 1.4336-7.2704 1.024-6.9632 1.024-6.7584 1.024-6.7584 1.3312-6.3488 2.048-6.3488 1.4336-5.7344 2.2528-5.4272 2.1504-5.0176 2.3552-4.3008 2.6624-4.3008 3.1744-1.4336 1.536-1.9456 1.8432-1.4336 1.6384-1.3312 1.8432-1.2288 1.8432-0.9216 1.8432-1.3312 3.9936-0.512 2.048-0.6144 2.3552 0 2.1504 0.6144 2.3552L298.9056 145.408l0.512 2.3552 0 1.4336L299.4176 152.576l0.2048 2.56 1.1264 2.8672 0.9216 2.8672 1.7408 3.4816 1.2288 1.3312 1.024 1.536 2.6624 3.2768 2.1504 1.7408 2.048 1.2288 1.8432 1.536 2.9696 0.9216 2.3552 1.4336 2.9696 1.536 3.3792 1.024 3.3792 1.024 3.8912 0.8192 3.7888 0.512 4.4032 0.6144 4.8128 0.3072 1.2288 0.4096 0.3072 0 0.6144 0.512 0 0.6144-0.8192 1.2288-2.56 1.2288-6.3488 5.5296-4.3008 3.3792-4.9152 4.3008-5.0176 4.8128-5.2224 6.2464-5.9392 6.9632-2.2528 3.7888-2.9696 3.8912-2.56 4.5056-2.2528 4.9152-3.072 4.7104-2.048 5.3248-2.3552 5.3248-2.3552 5.9392-1.7408 5.7344-1.6384 7.0656-0.512 0.3072-0.512 0-0.3072 0.512-0.6144 0-1.024-0.512-0.512-0.3072-0.7168-1.2288-0.3072-1.4336-0.512-1.3312-0.9216-2.1504-2.9696-5.2224-1.536-3.1744-2.3552-2.7648-2.56-3.2768-2.7648-3.6864-2.9696-3.2768-3.4816-3.1744-3.2768-2.9696-3.584-2.3552-3.8912-2.4576-3.7888-1.4336-4.4032-1.1264-4.3008-0.4096-0.4096 0-0.6144 0-1.024 0.4096-0.8192 1.7408-1.3312 0.8192-1.6384 4.096-1.024 2.2528-1.1264 3.1744-0.9216 3.2768-0.512 3.2768-1.3312 7.3728-0.512 4.3008 0 4.4032 0 9.8304 0.512 10.6496 0.8192 5.4272 1.024 5.632 0.9216 6.0416 1.6384 5.632 1.8432 6.4512 1.9456 6.2464 2.56 6.4512 2.3552 6.2464 3.2768 6.3488 3.072 6.7584 3.7888 6.3488 4.4032 6.8608 4.5056 6.2464 4.7104 6.8608 3.8912 4.8128 5.0176 5.5296 5.3248 5.5296 2.4576 2.6624 2.9696 2.9696 4.3008 3.7888 4.4032 3.7888 7.2704 6.4512 5.4272 3.9936 1.9456 1.4336-1.1264 3.2768-0.8192 4.3008-0.6144 2.3552L308.8384 425.984l0 3.584 0 3.2768 1.024 3.7888 1.1264 4.096 1.3312 4.3008 1.8432 4.7104 2.4576 4.9152 3.4816 4.9152 0 3.4816 0.3072 3.2768 0.512 4.4032 1.536 4.9152 1.3312 5.3248 1.1264 2.4576 1.2288 2.2528 1.6384 2.56 1.7408 1.8432 0 3.4816L329.5232 497.664l0 4.8128 1.024 6.3488 1.024 7.3728 1.8432 8.8064 2.56 9.1136 1.9456 5.0176 1.8432 5.4272 2.048 5.12 2.4576 5.4272 2.4576 5.9392 2.8672 5.632 3.2768 5.9392 4.096 5.9392 1.8432 3.3792 2.048 2.7648 4.4032 6.3488 4.5056 6.3488 5.12 6.4512 5.4272 6.3488 5.9392 6.2464 6.2464 6.3488 7.4752 6.8608 4.8128 4.1984 5.8368 4.5056 5.8368 3.9936 6.3488 3.7888 6.144 3.3792 6.8608 2.7648 7.3728 3.4816 7.2704 2.3552 7.2704 2.4576 7.8848 2.4576 7.8848 1.8432 8.2944 1.536 8.3968 1.3312 8.192 1.1264 8.2944 1.1264 8.8064 0.512 8.3968 0 8.704 0 9.0112 0 8.704-1.1264 8.704-1.024 8.9088-0.9216 8.192-1.9456 8.704-1.8432 8.192-2.1504 8.9088-2.3552 8.192-2.8672 7.8848-3.2768 8.3968-3.4816 7.68-3.7888 7.3728-4.1984 7.2704-4.7104 6.2464-4.3008 2.8672-2.4576 3.072-1.7408 5.8368-4.9152 4.9152-4.8128 4.8128-4.9152 4.8128-5.4272 3.8912-5.3248 4.608-5.4272 3.2768-5.8368 3.2768-5.2224 3.4816-6.0416 2.8672-5.3248 4.9152-11.1616 2.4576-5.7344 1.8432-5.3248 1.8432-5.8368 1.6384-5.4272 1.2288-4.7104 1.536-5.5296 2.6624-9.8304 1.7408-8.6016 1.1264-8.3968 0.9216-6.7584 1.536-10.24 0.3072-1.6384 1.2288-1.8432 3.2768-5.3248 2.048-3.584 1.8432-3.7888 2.3552-3.9936 2.048-4.8128 1.3312-4.9152 1.4336-5.3248 1.1264-5.5296 0.512-2.7648 0.4096-3.3792 0-2.8672-0.4096-2.8672 0-3.584-0.8192-3.4816-1.536-6.7584-1.7408-3.3792-1.3312-3.7888 0-0.9216 0.6144-1.2288 1.7408-2.7648 7.68-11.3664 6.0416-8.4992 2.8672-5.7344 3.8912-6.2464 3.3792-6.8608 3.8912-7.2704 3.8912-8.192 4.4032-9.3184 2.4576-5.7344 2.2528-5.5296 1.9456-5.8368 1.9456-5.3248 1.4336-5.5296 1.536-5.2224 1.9456-10.1376 1.536-10.3424 1.024-9.216L792.6784 277.7088z"
                   horiz-adv-x="1024"/>


            <glyph glyph-name="haoping" unicode="&#59000;"
                   d="M1000.0384 502.3744c-4.3008 12.6976-15.7696 21.7088-29.2864 22.7328l-309.6576 23.9616-117.76 303.104c-5.12 12.9024-17.408 21.504-31.3344 21.504-13.9264 0-26.4192-8.6016-31.3344-21.504l-117.76-303.104L53.248 525.1072c-13.5168-1.024-24.9856-10.0352-29.2864-22.7328-4.3008-12.6976-0.6144-26.8288 9.6256-35.84l238.3872-211.7632L197.2224-64.512c-3.072-13.312 2.2528-27.2384 13.5168-35.2256 11.264-7.7824 26.2144-8.192 37.6832-0.6144L512 71.4752l263.5776-171.6224c5.5296-3.6864 11.8784-5.5296 18.432-5.5296 6.7584 0 13.5168 2.048 19.2512 6.144 11.264 7.7824 16.5888 21.7088 13.5168 35.2256l-74.5472 319.0784 238.3872 211.7632C1000.6528 475.5456 1004.3392 489.6768 1000.0384 502.3744L1000.0384 502.3744zM1000.0384 502.3744"
                   horiz-adv-x="1024"/>


            <glyph glyph-name="dizhi" unicode="&#58904;"
                   d="M492.910231 240.904903c5.566385-4.550763 12.324171-6.81638 19.081957-6.81638 6.757786 0 13.535103 2.265616 19.081957 6.81638 10.292929 8.398405 252.206046 178.671177 252.206046 383.943813C783.28019 774.35985 661.581447 896 511.992188 896s-271.288003-121.64015-271.288003-271.151285C240.704185 419.57608 482.617302 249.303307 492.910231 240.904903L492.910231 240.904903zM511.992188 835.785391c116.386264 0 211.053863-94.628537 211.053863-210.936676 0-146.171304-155.878297-270.545818-211.092925-320.66281-55.195097 50.058398-211.034332 174.237601-211.034332 320.66281C300.938324 741.176386 395.625455 835.785391 511.992188 835.785391L511.992188 835.785391zM977.166152 619.497174l-120.468279-90.312147c-13.847602-9.238245-17.578056-27.890516-8.339811-41.738118 9.199183-13.828071 27.851454-17.519463 41.757649-8.359342l76.991887 59.120863 0-466.990363-243.78811-135.194784-377.771962 203.319518c-8.906215 4.765606-19.785079 4.726544-28.671763-0.097656L56.896309-17.082371 56.896309 398.228507l110.409725 80.87859c13.847602 9.238245 17.597588 27.910047 8.359342 41.738118-9.238245 13.847602-27.910047 17.597588-41.757649 8.339811L13.419916 438.872879C5.021512 433.306495 0.002 423.892469 0.002 413.833915l0-481.638744c0-10.624958 5.624978-20.46867 14.746036-25.898336 9.179652-5.410135 20.488201-5.585916 29.78504-0.527342l286.854348 172.792294 377.166495-202.987488c4.433576-2.382803 9.355432-3.574205 14.257757-3.574205 4.628888 0 9.238245 1.054683 13.47651 3.16405L1007.341815 25.6909c10.195273 5.117168 16.64056 15.527283 16.64056 26.913957L1023.982375 594.458209c0 11.113238-6.113257 21.308511-15.917907 26.542865C998.318413 626.215898 986.404397 625.649494 977.166152 619.497174z"
                   horiz-adv-x="1024"/>


            <glyph glyph-name="youjiantou1" unicode="&#58962;"
                   d="M799.49625 896C517.09 896 287.5 666.25875 287.5 383.9975c0-282.255 229.59-511.99625 511.99625-511.99625 282.25625 0 511.9975 229.74125 511.9975 511.99625C1311.49375 666.25875 1081.82625 896 799.49625 896zM799.49625-59.68375c-244.955 0-444.2675 199.0925-444.2675 443.68125C355.22375 628.66125 554.4625 827.7575 799.49625 827.7575c244.88375 0 444.195-199.09625 444.195-443.76C1243.69125 139.345 1044.375-59.68375 799.49625-59.68375zM892.46 102.035M768.4875 666.03875 768.4875 666.03875c6.58125 0 13.09-2.4125 17.92375-7.46625l272.745-274.49625L786.55375 109.4225c-9.94625-9.94625-26.035-9.94625-35.98625 0-9.94625 10.16625-9.94625 26.3275 0 36.27875l236.7625 238.375L750.42 622.37125c-9.94625 10.0925-9.94625 26.18625 0 36.12875C755.39625 663.62625 761.905 666.03875 768.4875 666.03875L768.4875 666.03875zM980.33875 356.83375 566.7125 356.83375c-14.8425 0-26.875 12.0325-26.875 26.875l0 0c0 14.8425 12.0325 26.875 26.875 26.875l413.62625 0c14.8425 0 26.875-12.0325 26.875-26.875l0 0C1007.21375 368.86625 995.18125 356.83375 980.33875 356.83375z"
                   horiz-adv-x="1600"/>


            <glyph glyph-name="flowero" unicode="&#59051;"
                   d="M512-127.953978c-86.20009 0-155.417888 104.332944-180.684225 272.268944-5.476674 36.633888-5.246562 92.965393-5.062472 138.205483l0.046022 21.354427c0 25.450427 20.618067 46.022472 46.022472 46.022472s46.022472-20.572045 46.022472-46.022472l-0.046022-21.768629c-0.18409-39.855461-0.414202-94.530157 4.003955-124.122607C442.966292 20.928719 490.921708-35.909034 512-35.909034c21.124315 0 69.07973 56.883775 89.605753 193.938697 3.773843 25.12827 26.693034 41.972494 52.373573 38.704899 25.12827-3.773843 42.432719-27.199281 38.704899-52.373573C667.509933-23.575011 598.246112-127.953978 512-127.953978zM820.258517 66.490966c-53.524135 0-118.23173 13.898787-189.796674 41.926472-34.562876 13.484584-83.438742 41.834427-122.741933 64.569528l-18.639101 10.769258c-22.044764 12.610157-29.684494 40.77591-17.028315 62.820674 12.610157 22.044764 40.729888 29.592449 62.820674 16.982292l18.961258-10.953348c34.654921-20.11182 82.058067-47.541213 110.131775-58.494562 130.105528-50.946876 203.557393-38.152629 214.142562-20.019775 10.493124 18.086831-15.233438 87.534742-124.306697 173.780854-19.973753 15.739685-23.333393 44.68782-7.547685 64.615551 15.785708 19.881708 44.68782 23.333393 64.615551 7.593708 133.833348-105.75964 190.072809-217.732315 146.765663-292.196674C934.026067 87.109034 885.47236 66.490966 820.258517 66.490966zM651.678202 257.852404c-15.969798 0-31.479371 8.330067-39.947506 23.103281-12.65618 22.044764-5.016449 50.210517 16.982292 62.820674l18.915236 10.769258c34.885034 19.789663 82.610337 46.942921 106.173843 65.582022 109.119281 86.20009 134.845843 155.694022 124.306697 173.734831-10.539146 18.178876-84.129079 30.973124-214.050517-19.973753-23.609528-9.250517-50.394607 2.347146-59.645124 26.048719-9.296539 23.701573 2.393169 50.394607 26.002697 59.645124 158.731506 62.17636 284.142742 54.766742 327.265798-19.513528 43.261124-74.556404-12.978337-186.483056-146.765663-292.150652-29.086202-23.011236-78.284225-50.946876-117.817528-73.451865l-18.547056-10.539146C667.325843 259.831371 659.456 257.852404 651.678202 257.852404zM651.63218 418.148674c-25.450427 0-46.022472 20.618067-46.022472 46.022472l0.046022 21.998742c0.18409 39.809438 0.460225 94.300045-4.003955 123.892494C581.033708 747.071281 533.078292 803.955056 512 803.955056 490.921708 803.955056 442.92027 747.025258 422.348225 609.970337 418.574382 584.796045 394.872809 567.491596 370.020674 571.311461c-25.12827 3.773843-42.432719 27.199281-38.658876 52.327551C356.53609 791.621034 425.753888 896 512 896c86.154067 0 155.417888-104.332944 180.730247-272.268944 5.430652-36.587865 5.200539-92.827326 4.970427-137.975371l-0.046022-21.584539C697.654652 438.720719 677.082607 418.148674 651.63218 418.148674zM241.617978 337.977528c-9.986876 0-20.065798 3.221573-28.533933 9.940854C79.250697 453.678022 23.011236 565.650697 66.318382 640.115056c43.123056 74.234247 168.48827 81.689888 327.219775 19.513528 34.654921-13.576629 83.668854-42.018517 123.110112-64.845663l18.270921-10.585169c22.044764-12.65618 29.684494-40.77591 16.982292-62.820674-12.610157-22.044764-40.729888-29.684494-62.820674-16.982292L470.441708 515.164045c-34.746966 20.157843-82.380225 47.771326-110.499955 58.770697C230.11236 624.835596 156.430382 612.087371 145.891236 593.862472c-10.493124-18.086831 15.187416-87.534742 124.260674-173.734831 19.92773-15.785708 23.333393-44.68782 7.593708-64.661573C268.633169 343.960449 255.148584 337.977528 241.617978 337.977528zM203.787506 66.490966c-65.259865 0-113.767551 20.618067-137.515146 61.393978-43.215101 74.556404 13.02436 186.529079 146.811685 292.196674 28.902112 22.965213 77.916045 50.808809 117.311281 73.17573l19.053303 10.861303c22.044764 12.702202 50.164494 5.016449 62.820674-16.982292 12.65618-22.044764 5.062472-50.164494-16.982292-62.820674l-19.375461-11.045393c-34.700944-19.74364-82.242157-46.712809-105.667596-65.305888-109.119281-86.20009-134.79982-155.694022-124.352719-173.734831 10.585169-18.178876 84.221124-30.881079 214.142562 19.973753 23.701573 9.296539 50.348584-2.393169 59.645124-26.002697 9.296539-23.701573-2.393169-50.394607-26.048719-59.645124C322.065258 80.34373 257.265618 66.490966 203.787506 66.490966zM512 177.681258c-7.915865 0-15.83173 2.024989-22.919191 6.120989l-139.63218 80.171146c-14.312989 8.238022-23.103281 23.425438-23.103281 39.901483L326.345348 464.171146c0 16.476045 8.790292 31.709483 23.103281 39.901483l139.63218 80.171146c14.220944 8.145978 31.663461 8.145978 45.838382 0l139.63218-80.171146c14.312989-8.192 23.103281-23.425438 23.103281-39.901483l0-160.29627c0-16.476045-8.790292-31.663461-23.103281-39.901483l-139.63218-80.171146C527.83173 179.706247 519.915865 177.681258 512 177.681258zM418.390292 330.521888 512 276.76764l93.609708 53.754247L605.609708 437.524135 512 491.278382 418.390292 437.524135 418.390292 330.521888z"
                   horiz-adv-x="1024"/>


            <glyph glyph-name="fa-truck-copy" unicode="&#58949;"
                   d="M970.016 541.665c-6.459 9.64-17.342 15.415-28.976 15.415h-34.823c-19.254 0-34.823-15.488-34.823-34.627v-207.68c0-19.142 15.569-34.626 34.823-34.626h139.289c19.253 0 34.822 15.484 34.822 34.626v51.926c0 6.824-2.034 13.52-5.844 19.198l-104.467 155.768zM1045.506 314.775h-139.289v207.694h34.823l104.467-155.768v-51.924zM1202.068 406.993l-139.289 207.691c-19.448 28.964-51.955 46.235-86.918 46.235h-139.289v69.241c0 57.27-46.862 103.84-104.468 103.84h-522.336c-57.62 0-104.467-46.569-104.467-103.84v-380.772c0-57.27 46.849-103.855 104.467-103.855h0.014v-103.839c0-57.27 46.862-103.854 104.468-103.854h39.747c15.542-59.558 69.617-103.839 134.351-103.839 64.692 0 118.753 44.28 134.337 103.839h183.961c15.583-59.558 69.645-103.839 134.393-103.839 64.678 0 118.753 44.28 134.322 103.839h39.789c57.605 0 104.467 46.584 104.467 103.854v207.695c0 20.551-6.054 40.499-17.55 57.606zM195.481 300.488c-19.21 0-34.822 29.771-34.822 48.901v380.77c0 19.128 15.611 48.901 34.822 48.901h550.911c19.252 0 34.822-29.773 34.822-48.901v-380.772c0-19.128-15.569-48.901-34.822-48.901h-550.911zM491.026-8.868l-7.13 0.054c-43.43 0-78.574 35.197-78.574 78.601 0 43.418 35.144 78.616 78.574 78.616 43.347 0 78.575-35.198 78.575-78.616 0.002-43.402-33.022-78.655-71.444-78.655zM948.182-8.868l-7.142 0.054c-43.431 0-78.561 35.197-78.561 78.601 0 43.418 35.129 78.616 78.561 78.616 43.359 0 78.574-35.198 78.574-78.616-0.002-43.402-33.009-78.655-71.43-78.655zM1115.151 107.068h-39.789c-15.571 59.572-69.645 103.852-134.322 103.852-64.748 0-118.811-44.28-134.393-103.852h-183.962c-15.583 59.572-69.645 103.852-134.337 103.852-64.736 0-118.809-44.28-134.351-103.852h-39.747c-19.252 0-34.823 15.484-34.823 34.626v103.839h452.678c57.606 0 104.468 46.584 104.468 103.855v242.306h139.289c11.634 0 22.518-5.776 28.976-15.415l139.29-207.695c3.808-5.678 18.345-27.765 18.345-34.586v-185.72l1.786-6.586c0-19.142-29.857-34.626-49.108-34.626z"
                   horiz-adv-x="1315"/>


            <glyph glyph-name="jiantou-copy-copy" unicode="&#59016;"
                   d="M767.707 376.549l-459.642 447.973-52.012-50.732 407.574-397.211-407.542-397.21 51.975-50.733z"
                   horiz-adv-x="1024"/>


            <glyph glyph-name="jiantou" unicode="&#58896;"
                   d="M621.384741 19.134369l319.600685 319.662118c24.9613 24.977682 24.9613 65.427296 0 90.416241L621.384741 748.873822c-24.96642 24.96642-65.421153 24.96642-90.387573 0-24.960276-24.960276-24.960276-65.427296 0-90.404979l210.48625-210.508775H128.744365c-35.308685 0-63.915018-28.622714-63.915018-63.936519 0-35.326091 28.605308-63.959045 63.915018-63.959044h612.739053L530.997168 109.528085c-12.463756-12.463756-18.725839-28.812133-18.725838-45.194298 0-16.35964 6.229318-32.753068 18.725838-45.199418 24.96642-24.977682 65.421153-24.977682 90.387573 0z"
                   horiz-adv-x="1024"/>


            <glyph glyph-name="jiangbei" unicode="&#58924;"
                   d="M925.184 665.6h-93.184V792.576c0 18.944-15.36 34.304-34.816 34.304H226.304c-18.944 0-34.304-15.36-34.304-34.304V665.6H98.304c-18.944 0-34.304-15.36-34.304-34.304v-189.952c0-54.272 22.016-104.448 57.856-140.8 31.744-31.744 73.728-53.248 120.32-58.368 51.712-80.384 138.752-135.168 234.496-145.92V10.24H327.68c-18.944 0-34.304-15.36-34.304-34.304 0-18.432 15.872-34.304 34.304-34.304h368.64c18.944 0 34.816 15.872 34.816 34.304 0 18.944-15.872 34.304-34.816 34.304h-149.504v86.528c95.744 10.24 182.784 65.536 234.496 145.92 45.568 5.12 87.04 26.112 118.272 56.32l2.048 1.536c35.84 36.352 58.368 86.528 58.368 140.8V631.296c-0.512 18.944-15.872 34.304-34.816 34.304zM171.52 349.184c-24.064 24.576-38.4 56.32-38.4 92.16V596.992h58.88V409.6c0.512-29.184 5.12-57.344 13.312-85.504-12.8 6.144-24.064 14.848-33.792 25.088z m591.872 62.464v-2.56c-0.512-38.4-10.752-76.288-28.16-110.08l-0.512-1.536c-43.52-80.896-129.536-133.632-222.208-133.632s-178.688 52.736-221.696 133.632l-1.024 1.536c-17.92 34.816-27.136 72.704-27.648 112.64V414.72L261.12 757.76h502.272v-346.112z m127.488 29.696c0-35.84-14.848-68.096-37.888-92.16l-1.536-1.536c-9.728-9.216-20.48-17.408-32.256-23.552 8.192 28.16 12.288 56.32 13.312 85.504V596.992H890.88v-155.648z m-337.92 78.336l-28.672 88.576c-1.536 3.584-4.096 7.168-8.192 8.192-6.656 2.048-13.824-1.536-16.384-8.192L471.04 519.68H377.856c-4.096 0-8.192-2.048-10.24-5.632-4.096-5.632-3.072-13.824 2.56-17.92l75.776-54.784-29.184-88.064c-1.536-3.584-0.512-8.192 1.536-11.776 4.096-5.632 12.288-7.168 17.92-2.56L512 393.728l74.752-54.784c3.072-2.56 7.68-3.584 12.288-2.048 6.656 2.048 10.752 9.728 8.192 16.384l-29.184 88.576L653.312 496.64c3.584 2.56 5.632 6.144 5.632 10.752 0 7.168-5.632 12.8-12.8 12.8l-93.184-0.512z m2.56-62.464c-4.608-3.584-6.144-9.216-4.608-14.336l19.456-59.904-50.688 37.376c-4.608 3.584-10.752 3.584-15.36 0l-50.688-37.376 19.456 59.904c2.048 5.632-0.512 11.264-5.12 14.848l-50.688 36.352h62.976c6.144 0 11.264 4.096 12.288 9.728L512 563.2l19.456-59.904c2.048-5.632 6.656-8.704 12.288-8.704h62.976l-51.2-37.376z"
                   horiz-adv-x="1024"/>


            <glyph glyph-name="youjiantou2" unicode="&#59146;"
                   d="M902.214 119.786v0zM512 834c-248.528 0-450-201.472-450-450s201.472-450 450-450c248.528 0 450 201.472 450 450 0 248.528-201.472 450-450 450zM573.072 168.642l-45.642 45.642 138.214 137.572h-410.786v64.286h410.786l-138.214 138.214 45.642 45.642 215.358-216z"
                   horiz-adv-x="1024"/>


            <glyph glyph-name="jiantou1" unicode="&#58888;"
                   d="M0 346.61h624.578v-261.46l353.248 325.918-353.248 325.963v-261.417h-624.578v-129.005z"
                   horiz-adv-x="1025"/>


            <glyph glyph-name="lianxidianhua" unicode="&#58907;"
                   d="M488.842216 248.457014c37.546667 0 67.978216 30.431549 67.978216 67.978216 0 37.546667-30.431549 67.978216-67.978216 67.978216-37.541859 0-67.978216-30.431549-67.978216-67.978216 0-37.546667 30.436357-67.978216 67.978216-67.978216z m0 181.276845c62.574573 0 113.303437-50.728864 113.303437-113.298629 0-62.574573-50.728864-113.298629-113.303437-113.298629-62.569765 0-113.293822 50.724056-113.293822 113.298629 0 62.569765 50.719249 113.298629 113.293822 113.298629z m0-407.869296c256.432676 0 294.575474 1.677822 294.575474 114.202442 0 102.092319-123.913615 384.302873-294.575474 384.302873-170.935887 0-294.570667-284.075869-294.570667-384.302873-0.004808-112.515005 38.162028-114.207249 294.570667-114.207249z m0 543.825728c196.915681 0 339.895887-303.305915 339.895887-453.189709 0-133.956507-44.017577-135.961239-339.89108-135.961239-295.85908 0-339.89108 2.019155-339.891079 135.956432 0 146.196432 142.653296 453.194516 339.891079 453.194516z m0 135.956432c-435.185577 0-381.331831-203.328901-362.548883-226.592451 32.287249-39.998498 60.964056 6.100732 90.636019 45.315606 21.633803 28.604695 119.880113 136.956394 271.912864 136.956394 128.004808 0 250.586742-109.116094 270.408113-133.634403 26.297089-32.522817 65.877333-83.843005 90.136037-44.652169 17.499343 23.710648 70.699268 222.611831-360.54415 222.611831z m405.609765-244.937915c-66.59846-94.953164-140.970667-4.879624-157.739267 22.326084-16.763793 27.205709-124.254948 131.971005-247.870498 131.971005-146.518535 0-232.395117-108.346892-249.255061-135.956432-16.855136-27.604732-91.645596-119.024376-158.614235-22.657803C56.055587 482.760714 10.33615 746.32293 488.842216 746.967136c475.847512-0.634592 430.382873-260.336376 405.609765-290.258328z"
                   horiz-adv-x="1024"/>


            <glyph glyph-name="icon-test" unicode="&#58882;"
                   d="M265.835163 85.611163c-8.406326 16.884093-26.195349 34.720744-43.103256 43.150884L81.348465 199.203721l50.128372 149.742139c5.977302 17.860465 6.001116 43.103256 0 61.011349l-50.128372 149.74214 141.335814 70.465488c16.860279 8.406326 34.69693 26.195349 43.12707 43.103256l70.465488 141.359628 149.74214-50.128372c17.860465-5.977302 43.079442-6.001116 61.011349 0l149.742139 50.128372 70.441675-141.335814c8.406326-16.860279 26.219163-34.69693 43.127069-43.12707l141.359628-70.465488-50.128372-149.74214c-5.977302-17.860465-6.001116-43.079442 0-61.011349l50.128372-149.742139-141.359628-70.441674c-16.860279-8.406326-34.69693-26.219163-43.103256-43.12707l-70.465488-141.359628-180.271628 60.344558-180.224-60.344558-70.465488 141.359628z m416.768-204.371349a57.344 57.344 0 0 1 68.822325 28.505302l73.346977 147.194047c2.190884 4.405581 9.906605 12.097488 14.288372 14.288372l147.170233 73.346977a57.344 57.344 0 0 1 28.529116 68.822325l-52.224 155.981396c-1.547907 4.643721-1.547907 15.526698 0 20.170418l52.224 155.981396a57.344 57.344 0 0 1-28.505302 68.798511l-147.194047 73.346977c-4.405581 2.214698-12.097488 9.906605-14.288372 14.288372l-73.346977 147.194046A57.344 57.344 0 0 1 682.579349 877.663256l-155.981396-52.200186c-4.643721-1.571721-15.526698-1.571721-20.170418 0L350.469953 877.663256a57.344 57.344 0 0 1-68.798511-28.505303l-73.346977-147.194046c-2.214698-4.405581-9.906605-12.097488-14.288372-14.288372l-147.194046-73.346977a57.344 57.344 0 0 1-28.505303-68.822325l52.200186-155.981396c1.571721-4.643721 1.571721-15.526698 0-20.170418L18.336744 213.396837a57.344 57.344 0 0 1 28.505303-68.822325l147.194046-73.346977c4.405581-2.190884 12.097488-9.906605 14.288372-14.288372l73.346977-147.170233a57.344 57.344 0 0 1 68.822325-28.529116l166.054698 55.581767 166.054698-55.581767zM487.781209 531.384558h116.06921c21.837395 0 34.673116 14.883721 34.673116 37.673675 0 23.099535-12.716651 38.269023-34.673116 38.269023H462.228837c-14.740837 0-26.147721-3.572093-33.43479-12.502326-5.620093-6.858419-9.287442-16.550698-11.74028-29.33879l-24.671255-149.813582c-1.905116-11.38307 0.476279-22.099349 7.144186-31.077209 7.28707-9.858977 18.574884-14.597953 32.101209-14.597954 6.810791 0 13.240558 0.952558 19.289302 2.857675 4.524651 1.428837 9.45414 3.095814 14.764651 4.929488 4.619907 1.595535 10.168558 3.143442 16.62214 4.619907a108.115349 108.115349 0 0 0 23.123349 1.976558c22.504186 0 38.530977-6.120186 49.247256-18.050976 11.14493-12.454698 16.884093-29.600744 16.884093-52.271628 0-10.35907-1.905116-20.337116-5.786791-30.05321a82.801116 82.801116 0 0 0-15.550512-25.433302c-6.429767-7.096558-13.978791-12.764279-22.766139-17.074605a61.20186 61.20186 0 0 0-27.433675-6.144c-9.573209 0-20.265674 2.571907-32.101209 7.858605-11.549767 5.215256-22.146977 13.43107-31.839256 24.861767-8.07293 8.811163-17.693767 13.121488-28.267163 11.859349a36.244837 36.244837 0 0 1-21.742139-10.287628 44.198698 44.198698 0 0 1-11.549767-26.766883c-1.000186-11.359256 2.667163-21.813581 10.501953-30.291349 6.26307-7.120372 13.19293-13.954977 20.575256-20.241861 7.691907-6.548837 16.14586-12.288 25.338046-17.217488 9.477953-5.096186 20.003721-8.97786 31.505861-11.692651 11.478326-2.690977 24.194977-4.048372 38.173767-4.048372 21.432558 0 41.507721 4.191256 60.011163 12.549953a150.694698 150.694698 0 0 1 47.627907 33.577675 150.623256 150.623256 0 0 1 31.220093 49.294883 159.172465 159.172465 0 0 1 11.002047 58.653768c0 21.480186-3.31014 41.174326-10.001861 59.058604a133.215256 133.215256 0 0 1-28.695814 46.294326 127.261767 127.261767 0 0 1-45.222698 29.886512c-17.550884 6.977488-36.959256 10.430512-58.12986 10.430511a233.114791 233.114791 0 0 1-33.625302-2.214697l12.95479 74.466232z"
                   horiz-adv-x="1024"/>


            <glyph glyph-name="jiangbei1" unicode="&#58887;"
                   d="M512 240.89441c-50.881988 0-101.763975 12.720497-146.285714 31.801242-101.763975 31.801242-159.006211 127.204969-159.006211 235.329193V851.478261c0 25.440994 19.080745 44.521739 44.521739 44.521739h527.900621c25.440994 0 44.521739-19.080745 44.521739-44.521739V508.024845c0-101.763975-63.602484-197.167702-159.006211-235.329193-50.881988-25.440994-101.763975-31.801242-152.645963-31.801242zM270.310559 832.397516V508.024845c0-76.322981 44.521739-146.285714 120.844721-178.086957 82.68323-31.801242 171.726708-31.801242 248.049689 0 69.962733 31.801242 120.84472 101.763975 120.84472 178.086957V832.397516H270.310559zM785.490683 418.981366l-6.360248 63.602485c12.720497 0 31.801242 6.360248 44.521739 12.720497 25.440994 12.720497 44.521739 44.521739 44.521739 76.322981V679.751553h-82.68323v63.602484h101.763975c25.440994 0 44.521739-19.080745 44.52174-44.521739v-127.204969c0-57.242236-38.161491-108.124224-89.043479-133.565217-19.080745-12.720497-38.161491-12.720497-57.242236-19.080746zM232.149068 418.981366c-19.080745 6.360248-38.161491 6.360248-57.242236 19.080746C117.664596 457.142857 85.863354 508.024845 85.863354 571.627329V698.832298c0 25.440994 19.080745 44.521739 44.521739 44.521739h101.763975v-63.602484H149.465839V571.627329c0-31.801242 19.080745-63.602484 50.881987-76.322981 12.720497-6.360248 25.440994-6.360248 44.521739-12.720497l-12.720497-63.602485zM480.198758 272.695652h63.602484v-298.931677h-63.602484zM734.608696-58.037267h-445.217392c-19.080745 0-31.801242 12.720497-31.801242 31.801242s12.720497 31.801242 31.801242 31.801242h438.857143c19.080745 0 31.801242-12.720497 31.801242-31.801242s-12.720497-31.801242-25.440993-31.801242zM594.68323 482.583851L512 527.10559l-82.68323-44.521739 12.720497 89.043478-63.602484 69.962733 89.043478 12.720497 44.521739 82.68323 44.521739-82.68323 89.043478-12.720497-63.602484-69.962733z"
                   horiz-adv-x="1024"/>


            <glyph glyph-name="jia" unicode="&#58889;"
                   d="M514.483 839.603c-253.26 0-459.29-206.029-459.29-459.264 0-253.26 206.03-459.29 459.29-459.29s459.29 206.03 459.29 459.29c0 253.235-206.029 459.264-459.29 459.264z m0-870.118c-226.56 0-410.854 184.294-410.854 410.854 0 226.535 184.294 410.829 410.854 410.829s410.855-184.294 410.855-410.829c0-226.534-184.295-410.854-410.855-410.854z m173.235 443.904H547.2V553.6c0 13.363-18.918 24.218-32.282 24.218s-32.281-10.855-32.281-24.218v-140.211H341.248c-13.363 0-24.218-18.919-24.218-32.282 0-13.363 10.855-32.281 24.218-32.281h141.363v-141.722c0-13.363 18.919-24.218 32.282-24.218s32.281 10.855 32.281 24.218V348.826h140.519c13.363 0 24.217 18.918 24.217 32.281 0.026 13.363-10.803 32.282-24.192 32.282z m0 0"
                   horiz-adv-x="1024"/>


            <glyph glyph-name="ziyuan" unicode="&#58939;"
                   d="M512.227-128c-192.737 0-400.439 40.361-400.439 128.794 0 62.129 99.316 94.328 181.399 110.2 1.316 0.242 2.83 0.38 4.376 0.38 14.026 0 25.396-11.37 25.396-25.396 0-12.203-8.607-22.396-20.082-24.839-106.285-19.984-141.658-49.461-141.658-59.891 0-23.128 118.817-78.002 349.194-78.002s349.194 54.42 349.194 78.002c0 10.884-37.187 40.815-146.934 61.222-11.916 2.247-20.809 12.574-20.809 24.978 0 1.59 0.146 3.146 0.426 4.656 2.441 11.757 12.847 20.584 25.315 20.584 1.461 0 2.894-0.121 4.289-0.354 86.014-15.852 188.504-47.597 188.504-111.086 1.814-88.886-205.435-129.247-398.172-129.247zM512.227-45.463c-0.074-0.001-0.163-0.001-0.251-0.001-10.744 0-20.241 5.337-25.985 13.505l-224.549 330.701c-62.385 63.391-100.903 150.43-100.903 246.467 0 194.107 157.355 351.461 351.461 351.461 194.107 0 351.461-157.355 351.461-351.461 0-96.036-38.518-183.076-100.949-246.513l-224.436-330.554c-5.788-8.235-15.231-13.562-25.921-13.605zM512.227 832.964c-0.267 0.001-0.582 0.001-0.898 0.001-159.042 0-287.972-128.929-287.972-287.972 0-79.745 32.414-151.919 84.785-204.066l3.638-4.545 199.993-294.321 199.993 294.321 3.628 4.535c52.38 52.157 84.794 124.33 84.794 204.074 0 159.039-128.923 287.966-287.96 287.972zM512.227 409.396c-91.168 0-165.074 73.906-165.074 165.074 0 91.168 73.906 165.074 165.074 165.074 91.168 0 165.074-73.906 165.074-165.074 0-91.168-73.906-165.074-165.074-165.074-0 0-0 0-0 0zM512.227 676.507c-0 0-0 0-0 0-56.354 0-102.037-45.684-102.037-102.037 0-56.354 45.684-102.037 102.037-102.037 56.354 0 102.037 45.684 102.037 102.037 0 56.354-45.684 102.037-102.037 102.037z"
                   horiz-adv-x="1024"/>


            <glyph glyph-name="shouqi" unicode="&#58940;"
                   d="M122.88 301.707636a46.545455 46.545455 0 1 0-59.578182 71.493819l558.545455 465.454545a46.545455 46.545455 0 0 0 59.578182 0l558.545454-465.454545a46.545455 46.545455 0 0 0-59.578182-71.493819L651.636364 742.306909 122.88 301.707636zM651.636364 369.943273l-528.756364-440.599273a46.545455 46.545455 0 0 0-59.578182 71.493818l558.545455 465.454546a46.545455 46.545455 0 0 0 59.578182 0l558.545454-465.454546a46.545455 46.545455 0 0 0-59.578182-71.493818L651.636364 369.943273z"
                   horiz-adv-x="1303"/>


            <glyph glyph-name="fuwu1" unicode="&#59331;"
                   d="M931.865692 763.511283C872.44433 822.932645 793.332072 855.62724 709.085133 855.62724s-163.392229-32.727627-222.813592-92.152659L266.364789 543.60453c-14.19286-14.18919-14.19286-37.326452 0-51.519311a36.287771 36.287771 0 0 1 25.75782-10.66942 36.078566 36.078566 0 0 1 25.761491 10.66942l219.870051 219.87372c45.657921 45.657921 106.521692 70.846853 171.294279 70.846853 64.779928 0 125.599656-25.148559 171.264918-70.813821 94.450237-94.450237 94.450237-248.108961 0-342.595899L512.029362 1.082724 143.675642 369.363039c-94.450237 94.450237-94.450237 248.145663 0 342.559198C189.263828 757.510423 249.760573 782.62595 314.037677 782.62595c11.605333 0 23.386839-0.829477 34.992172-2.48109 1.725018-0.249577 3.450036-0.359685 5.175054-0.359684 17.99891 0 33.483699 13.473491 36.034524 31.329261 2.800401 19.903771-11.102509 38.368803-30.969578 41.172875a310.969348 310.969348 0 0 1-44.406365 3.160086c-33.303857 0-66.031484-5.101649-97.324043-15.194839-47.603154-15.378351-89.81471-41.209577-125.419814-76.777978-122.832287-122.832287-122.832287-322.761864 0.036703-445.594151l394.074838-394.078509a36.225376 36.225376 0 0 1 25.765162-10.669419 36.140961 36.140961 0 0 1 25.757821 10.669419l394.074838 394.074839c122.905692 122.872659 122.868989 322.765534 0.036703 445.634523z"
                   horiz-adv-x="1024"/>


            <glyph glyph-name="shop1" unicode="&#58883;"
                   d="M5.821 469.96c0-53.323 40.478-97.755 95.068-110.584v-376.505h-63.378c-17.46 0-31.69-12.827-31.69-28.665 0-15.836 14.23-28.646 31.69-28.646h950.684c17.577 0 31.69 12.827 31.69 28.646s-14.112 28.648-31.691 28.648l-63.377 0v376.52c54.59 12.829 95.068 57.261 95.068 110.584v28.647h-1014.064v-28.646zM639.611 355.355c70.072 0 126.758 51.311 126.758 114.605 0-53.323 40.478-97.755 95.068-110.584v-376.505l-475.342-0v372.483c70.072 0 126.758 51.311 126.758 114.605 0-63.295 56.805-114.605 126.758-114.605zM354.405 359.375v-376.505l-190.136-0v376.505c54.59 12.829 95.068 57.261 95.068 110.584 0.001-53.322 40.478-97.754 95.068-110.584zM893.127 756.482h-760.547l-126.759-229.211h1014.064l-126.758 229.211zM273.568 692.799l-63.379-114.606c-2.839-5.037-8.418-7.944-14.23-7.944-2.35 0-4.767 0.439-7.049 1.504-7.791 3.516-11.020 12.152-7.048 19.2l63.378 114.606c3.955 7.048 13.42 9.905 21.228 6.44 7.842-3.532 10.935-12.152 7.099-19.2zM400.325 692.799l-63.378-114.606c-2.84-5.037-8.418-7.944-14.231-7.944-2.35 0-4.766 0.439-7.048 1.504-7.791 3.516-11.020 12.152-7.049 19.2l63.379 114.606c3.955 7.048 13.487 9.905 21.227 6.44 7.844-3.532 10.936-12.152 7.099-19.2zM528.706 584.565c0-7.944-7.065-14.332-15.853-14.332-8.738 0-15.853 6.372-15.853 14.332l0 114.606c0 7.944 7.115 14.332 15.853 14.332 8.788 0 15.853-6.372 15.853-14.332l-0-114.606zM710.663 572.025c-2.467-1.234-5.070-1.792-7.673-1.792-5.577 0-11.020 2.687-13.859 7.436l-69.329 114.606c-4.208 6.946-1.352 15.667 6.305 19.419 7.555 3.803 17.324 1.352 21.549-5.646l69.327-114.605c4.074-6.93 1.353-15.668-6.32-19.419zM836.812 571.754c-2.247-1.065-4.58-1.504-7.064-1.504-5.814 0-11.391 2.907-14.112 7.944l-63.379 114.605c-3.955 7.048-0.744 15.668 7.048 19.2 7.691 3.515 17.325 0.675 21.296-6.44l63.379-114.606c3.835-7.048 0.759-15.684-7.167-19.199zM275.19 150.429v66.016c-9.295 5.053-15.852 13.775-15.852 24.285 0 15.838 14.23 28.648 31.689 28.648 17.577 0 31.69-12.829 31.69-28.648 0-10.51-6.506-19.249-15.853-24.304v-66.016c9.347-5.053 15.853-13.775 15.853-24.304 0-15.838-14.112-28.646-31.69-28.646-17.459 0-31.689 12.827-31.689 28.646 0 10.529 6.557 19.267 15.852 24.322zM132.58 813.795c0 15.837 14.23 28.647 31.69 28.647h697.168c17.577 0 31.69-12.811 31.69-28.647s-14.112-28.647-31.69-28.647h-697.168c-17.46-0.017-31.69 12.811-31.69 28.647zM561.241 201.96l-22.394 20.265 89.626 81.039 22.394-20.265-89.626-81.039zM561.241 120.919l-22.394 20.265 179.235 162.080 22.394-20.265-179.235-162.080zM718.099 222.225l22.394-20.265-89.626-81.041-22.394 20.265 89.626 81.041z"
                   horiz-adv-x="1024"/>


            <glyph glyph-name="arrow-right" unicode="&#58881;"
                   d="M256.293 391.451l459.642-447.973 52.012 50.732-407.574 397.211 407.542 397.21-51.975 50.733z"
                   horiz-adv-x="1024"/>


            <glyph glyph-name="dianhua" unicode="&#59482;"
                   d="M643.5 686.7c-47.6 0-91.6-15.2-127.6-40.9l32.2-38.1c26.8 17.3 58.6 27.7 92.9 27.7 95 0 171.9-77.1 171.9-172.2 0-44.6-17.4-84.9-45.2-115.5l31.8-37.7c40 39.9 64.7 95.1 64.7 156 0 122-98.9 220.7-220.7 220.7m0 160.6c-87.1 0-167-29.6-231.2-78.9l32.6-38.6c54.8 40.4 122.3 64.6 195.7 64.6 182.6 0 330.5-148 330.5-330.7 0-93.3-38.7-177.3-100.8-237.4l32.5-38.4c74.4 69.6 121.2 168.3 121.2 278.3 0 210.5-170.4 381.1-380.5 381.1M593.4-79.3c-6.2 0-12.5 0.2-18.7 0.6-29.2 2-58.6 8.2-87.6 18.5-28.6 10.3-56.9 24.5-84.3 42.3-27 17.7-53 38.9-77.3 63.1-13.5 11.9-29.2 26.8-45.4 43.3-14 14.1-30.1 31.2-48.5 51.3-18.4 20.1-38 43-58 68-20.4 25.1-37.5 47.7-50.7 67-13.3 19.4-23.9 35.7-31.8 48.7-9.3 15.5-16.4 28.7-21.7 40.3-12.4 20.1-23.3 41-32.3 62-9.2 21.5-16.9 43.4-22.8 65.3-7.8 28.8-12.5 57.7-13.9 86-1.4 28.8 0.9 56.9 6.8 83.7 6.1 27.2 16.4 53.1 30.5 77C52 762 71 783.8 94.3 802.7L128.2 831c8.9 6.9 17.8 11.3 27.4 13.9 13.5 3.6 27.2 3.2 40.9-1.1 13.6-4.3 25.3-12.4 34.5-23.8l120.1-148.3c6.8-8.7 11.3-17.7 13.8-27 3.7-13.4 3.6-27.3-0.4-40.9-4.1-14.1-12.1-26-23.8-35.5l-67-55.2c-4.7-3.9-7.6-8.2-9.1-13.3-1.6-5.7-1.7-11.2-0.1-16.8 1.2-4.4 3-8.2 5.7-11.5l203-251.7c4.3-5.3 8.8-8.5 13.7-10 5.5-1.6 10.9-1.6 16.5-0.1 3.5 0.9 6.9 2.7 10.4 5.5l66.8 55c8.7 6.8 17.7 11.3 27.2 13.8 13.3 3.5 26.9 3.1 40.5-1.1 13.8-4.3 25.5-12.2 34.8-23.4l120.4-149c6.4-8.2 11-17.2 13.7-26.9 3.7-13.6 3.5-27.3-0.6-40.8-4-13.6-11.8-25.4-23-35L759-20.9c-15-12.3-30.8-22.5-47.1-30.6-16.3-8-33.2-14.4-50.4-18.9-22-5.9-44.9-8.9-68.1-8.9M174 794.3c-1.6 0-3.3-0.2-4.9-0.7-2.7-0.7-5.3-2.1-8-4.1l-33.3-27.4c-18.5-15.1-33.5-32.2-44.6-51-11.3-19.1-19.5-39.8-24.4-61.6-4.9-22.1-6.8-45.5-5.6-69.5 1.2-24.5 5.3-49.7 12.1-74.8 5.3-19.4 12.1-39 20.4-58.2 8.2-19.1 18.2-38.2 29.6-56.6l1.7-3.3c4.3-9.8 10.8-21.9 19.3-36 7.5-12.4 17.6-27.8 30.2-46.3 12.4-18.2 28.6-39.6 48.2-63.7 19.4-24.3 38.1-46.3 55.8-65.4 17.9-19.5 33.7-36.2 47.2-49.9 15.4-15.6 30.2-29.7 44-41.9 22.8-22.7 46-41.7 69.9-57.3 23.9-15.6 48.5-28 73.2-36.8 24.3-8.7 49.1-13.9 73.4-15.6 23.9-1.7 47.4 0.6 69.8 6.5 13.8 3.7 27.4 8.7 40.4 15.2 12.7 6.3 25.2 14.5 36.9 24.1l34.1 28.5c3.2 2.7 5.3 5.8 6.4 9.6 1.2 4.1 1.3 7.8 0.2 11.7-0.8 2.8-2.1 5.4-4.1 7.9L642.2 225.9c-2.6 3.1-5.7 5.2-9.7 6.5-4 1.2-7.6 1.4-11.2 0.4-2.7-0.7-5.2-2-7.8-4L546.9 174c-9.6-7.6-19.6-12.7-30.1-15.5-14.7-3.9-29.7-3.8-44.4 0.3-15.4 4.4-29 13.7-40.2 27.5l-203.3 252c-7.2 9.1-12.3 19.3-15.4 30.6-4.1 15-4 30.2 0.3 45.3 4.5 15.6 13.3 29 26.4 39.7l67.1 55.3c3.4 2.8 5.3 5.6 6.4 9.3 1.2 4.2 1.3 8.1 0.1 12.3-0.7 2.7-2.1 5.3-4.2 7.9L189.9 786.5c-2.8 3.4-5.8 5.5-9.5 6.7-2.2 0.8-4.3 1.1-6.4 1.1"
                   horiz-adv-x="1024"/>


            <glyph glyph-name="flower1" unicode="&#58920;"
                   d="M825.044674 323.145395c-56.073254 0-126.502193 10.609711-211.333348 31.829134-3.024698-9.074095-6.049397-15.914567-9.074095-20.474881 75.733794-45.417009 133.296131-87.832587 172.663743-127.223467 90.903819-92.392902 121.941878-152.979937 93.160709-181.761105-6.049397-6.049397-15.123492-9.097362-27.268819-9.097362-34.830565 0-86.320238 34.086024-154.492286 102.258072-39.39088 39.367613-81.806457 96.929949-127.246733 172.663743-3.024698-1.512349-10.609711-4.537048-22.708505-9.074095 22.708505-90.880553 34.062757-161.332758 34.062757-211.310082 0-128.759083-21.196156-193.138624-63.611734-193.138624s-63.611733 64.379541-63.611733 193.115357c0 50.023858 11.354252 120.452796 34.062757 211.333349-12.098793 4.537048-19.683806 7.561746-22.708505 9.074095-45.440276-75.733794-87.855854-133.296131-127.246733-172.663743-68.172048-68.172048-119.661721-102.258072-154.492286-102.258072-12.12206 0-21.219422 3.024698-27.26882 9.074095-28.781168 28.804435 2.25689 89.39147 93.16071 181.784372 39.367613 39.39088 96.929949 81.806457 172.663743 127.246734-3.024698 4.537048-6.049397 11.354252-9.074095 20.451614-84.831156-21.219422-155.260094-31.805867-211.310081-31.805867C64.612237 323.145395 0.232695 344.364818 0.232695 386.780396s64.379541 63.611733 193.115358 63.611733c50.023858 0 120.452796-11.354252 211.333348-34.062757 4.537048 12.098793 7.561746 19.683806 9.074095 22.708505-78.758492 48.464975-136.320829 90.136011-172.663743 124.966576-90.903819 90.880553-121.941878 151.467588-93.16071 181.784373 6.049397 6.049397 15.123492 9.074095 27.26882 9.074095 36.342914 0 87.855854-33.318216 154.492286-99.977915 39.39088-39.367613 81.806457-96.929949 127.246733-172.663743 3.024698 1.512349 10.609711 4.537048 22.708505 9.074095-22.708505 90.880553-34.062757 161.332758-34.062757 211.310082 0 128.759083 21.196156 193.138624 63.611733 193.138624s63.611733-64.379541 63.611734-193.115358c0-50.023858-11.354252-120.452796-34.062757-211.333348 12.098793-4.537048 19.683806-7.561746 22.708505-9.074095 45.440276 75.733794 87.855854 133.296131 127.246733 172.663743 66.636432 66.659699 118.149372 99.977915 154.492286 99.977915 12.12206 0 21.219422-3.024698 27.268819-9.074095 28.781168-30.293518-2.25689-90.903819-93.160709-181.784373-36.342914-34.830565-93.905251-76.501602-172.663743-124.943309 1.512349-3.047965 4.537048-10.632978 9.074095-22.731772 90.880553 22.708505 161.332758 34.062757 211.310081 34.062757 128.759083 0 193.138624-21.196156 193.138625-63.611733s-64.379541-63.611733-193.115358-63.611734z m-170.43012 65.915158v-6.817205c65.14735-15.146759 121.918611-22.731772 170.406853-22.731771 45.440276 0 84.831156 3.792506 118.149372 11.354252 7.585013 3.024698 19.707073 8.329554 36.366181 15.914567-16.659108 9.074095-28.781168 14.378951-36.366181 15.914567-33.318216 7.561746-72.709095 11.354252-118.149372 11.354252-42.415578 0-99.210107-8.329554-170.406853-24.988662z m59.097953 240.835791c-33.341483-33.318216-68.172048-79.5263-104.538229-138.600986l4.537048-4.537048c59.097953 36.342914 105.28277 71.196746 138.600986 104.514963 34.853832 34.830565 59.842494 65.14735 74.989252 90.880552 10.609711 19.707073 15.8913 31.805867 15.8913 36.366181-27.245552 0-70.428938-29.548976-129.503624-88.623662z m-309.031106-143.138034l4.537048 4.537048c-36.342914 59.097953-71.196746 105.28277-104.514962 138.600986-59.097953 59.097953-102.258072 88.623662-129.503624 88.623662 0-4.560314 5.281589-16.659108 15.891299-36.366181 15.146759-25.733203 40.135421-56.049988 74.989253-90.880552 33.318216-33.318216 79.5263-68.172048 138.600986-104.514963zM193.348053 359.511577c48.464975 0 105.28277 7.585013 170.406853 22.731771v6.817205c-71.196746 16.659108-127.991275 24.988662-170.406853 24.988662-45.440276 0-84.831156-3.792506-118.149372-11.354252-7.585013-1.535616-19.707073-6.817205-36.366181-15.914567 19.707073-9.074095 31.061326-14.378951 34.086024-15.914567 33.318216-7.561746 73.476904-11.354252 120.429529-11.354252z m111.332167-215.847129c33.318216 33.318216 68.172048 79.5263 104.514962 138.600986l-4.537048 4.537047c-59.097953-36.342914-105.28277-71.196746-138.600986-104.514962-33.341483-33.318216-58.330145-64.379541-74.989252-93.16071-10.609711-19.683806-15.8913-31.805867-15.8913-36.342914 25.733203 0 68.916589 30.293518 129.503624 90.880553z m309.007839 143.138033l-4.537048-4.537047c36.342914-59.097953 71.196746-105.28277 104.514962-138.600986 60.587035-60.587035 103.770421-90.880553 129.503624-90.880553 0 4.537048-5.281589 16.659108-15.891299 36.342914-16.659108 28.781168-41.64777 59.842494-74.989253 93.16071-33.318216 33.318216-79.5263 68.172048-138.600986 104.514962z m-120.429529 533.975597c-7.561746-33.341483-11.354252-72.732362-11.354253-118.172638 0-42.415578 8.329554-99.210107 24.988662-170.406853h4.560315c16.659108 71.196746 24.988662 127.991275 24.988662 170.406853 0 45.440276-3.792506 84.831156-11.354253 118.149371a971.626184 971.626184 0 0 1-15.914566 36.366181c-9.074095-16.659108-14.378951-28.781168-15.914567-36.366181z m31.829133-870.252255c7.561746 33.318216 11.354252 73.476904 11.354253 120.429529 0 42.415578-8.329554 99.210107-24.988662 170.406853h-4.560315c-16.659108-71.196746-24.988662-127.991275-24.988662-170.406853 0-46.952625 3.792506-87.111313 11.354253-120.429529 1.535616-3.024698 6.817205-14.378951 15.914567-34.086024 9.074095 19.707073 14.378951 31.061326 15.914566 34.086024zM509.196363 314.0713c21.196156 0 38.623072 6.817205 52.257482 20.451615 13.63441 13.63441 20.451614 31.061326 20.451614 52.257481s-6.817205 38.623072-20.451614 52.257481c-13.63441 13.63441-31.061326 20.451614-52.257482 20.451614s-38.623072-6.817205-52.257481-20.451614c-13.63441-13.63441-20.451614-31.061326-20.451614-52.257481s6.817205-38.623072 20.451614-52.257481c13.63441-13.63441 31.061326-20.451614 52.257481-20.451615z m202.21272-268.10461c22.731772-75.757061 18.939265-119.684988-11.354252-131.783781-3.024698-1.535616-6.817205-2.280157-11.354253-2.280157-27.268819 0-55.282179 26.524278-84.063347 79.5263 3.024698 27.268819 4.164777 53.76983 3.396968 79.5263a1255.435959 1255.435959 0 0 1-3.396968 65.891891l-4.560315 27.268819c36.366181-51.51294 73.476904-90.903819 111.332167-118.149372z m-24.988662-97.721024c4.560314 16.659108 2.280157 42.415578-6.817205 77.246143-7.561746 6.072664-18.939265 16.682375-34.086024 31.829133 0-25.75647-0.744541-44.672468-2.25689-56.817795 19.683806-31.805867 34.086024-49.209516 43.160119-52.257481zM413.755496 779.874849a409.869896 409.869896 0 0 1-5.677126-79.5263c0.767808-25.75647 2.652428-46.975892 5.677126-63.635l2.280158-27.268819c-40.903229 53.025289-77.246143 91.671628-109.05201 115.869214-22.731772 77.26941-18.939265 121.965145 11.354252 134.087206 3.024698 1.512349 6.817205 2.25689 11.354253 2.25689 25.75647 0 53.76983-27.268819 84.063347-81.783191z m-40.879961-63.635c0 25.75647 0.744541 44.672468 2.25689 56.817796-18.171457 30.293518-32.573675 46.952625-43.160119 49.977324-4.560314-16.659108-2.280157-42.415578 6.817205-77.246143 15.123492-12.12206 26.524278-21.963964 34.086024-29.548977zM113.845019 289.059372c27.268819-3.024698 53.76983-4.14151 79.526301-3.396969 25.75647 0.767808 47.697167 2.652428 65.89189 5.677126l27.26882 2.280157c-51.51294-36.342914-90.136011-72.709095-115.869215-109.05201-27.292086-9.097362-53.793097-13.63441-79.549567-13.634409-28.781168 0-46.952625 8.329554-54.537638 24.988662-10.586444 24.244121 15.170026 55.282179 77.246143 93.160709z m36.342915-72.685829c12.12206 15.123492 21.963964 26.524278 29.548976 34.086024-25.75647 0-44.672468 0.744541-56.817795 2.25689-30.293518-18.171457-46.952625-32.573675-49.977324-43.160119h6.817205c4.537048-1.512349 8.329554-2.280157 11.354252-2.280157 19.707073 0 39.39088 3.024698 59.097953 9.074095z m831.605916 361.26532c12.12206-25.75647-13.611143-57.562337-77.246143-95.4176a568.503692 568.503692 0 0 1-79.5263 3.396969c-25.75647-0.767808-47.697167-1.88462-65.89189-3.396969l-27.26882-4.560315c50.000591 37.87853 88.623662 74.989253 115.869215 111.332167 24.244121 7.585013 50.768399 11.377519 79.549567 11.37752 30.293518 0 48.464975-7.585013 54.514371-22.731772z m-86.320238-59.074686c30.293518 18.171457 46.952625 32.573675 49.977324 43.183386l-6.817205 2.25689h-11.354252c-19.707073 0-39.39088-3.024698-59.097953-9.074095-6.049397-7.585013-15.8913-18.194724-29.525709-31.829133 13.63441 0 32.573675-1.512349 56.817795-4.537048zM297.886282 39.149485a599.076413 599.076413 0 0 1 61.354843 55.65445c19.683806 20.474881 34.830565 37.482993 45.440276 51.117403l13.63441 18.194724c-1.512349-6.049397-3.024698-14.402218-4.560315-25.011929-1.512349-10.586444-3.024698-31.410329-4.537047-62.471655s-0.744541-55.677717 2.280157-73.849174c-34.853832-59.074686-64.379541-88.623662-88.623662-88.623662-6.049397 0-10.609711 0.767808-13.63441 2.280157-25.75647 12.12206-29.548976 53.025289-11.354252 122.709686z m27.268819-86.343505c15.123492 7.561746 31.805867 27.268819 49.977324 59.074686 0 4.537048-0.372271 11.726523-1.140079 21.568426a325.271409 325.271409 0 0 0-1.116811 23.87185 664.200495 664.200495 0 0 0-43.183386-38.623071c-7.561746-31.829134-9.074095-53.793097-4.537048-65.891891z m383.997092 902.058122c25.75647-12.145327 29.548976-53.048556 11.354252-122.709686-19.683806-13.63441-39.39088-31.061326-59.074686-52.257481-19.683806-21.219422-34.830565-38.623072-45.440276-52.257481l-15.914567-20.474882c1.512349 7.585013 3.024698 17.450183 4.560315 29.548977 1.512349 12.12206 3.396969 34.458295 5.677126 67.031969 2.25689 32.573675 1.140079 54.165368-3.420236 64.751812 30.293518 59.097953 59.842494 88.623662 88.623662 88.623662 6.049397 0 10.609711-0.767808 13.63441-2.280157z m-20.474882-102.258072c7.585013 30.293518 9.097362 53.002022 4.560315 68.172048-15.123492-7.585013-31.805867-27.292086-49.977324-59.097953 0-4.537048 0.372271-12.098793 1.140079-22.708504 0.744541-10.609711 1.116812-18.939265 1.116811-24.988662a664.223762 664.223762 0 0 0 43.183386 38.623071zM161.58872 598.090477c12.098793-16.659108 28.781168-34.830565 49.977324-54.537638 21.196156-19.683806 38.623072-35.598373 52.257481-47.697167l22.731771-18.194724c-6.049397 1.512349-14.402218 3.024698-25.011928 4.560315-10.586444 1.512349-31.410329 3.024698-62.471655 4.537047s-54.909909 0.744541-71.569017-2.280157c-69.684397 37.87853-98.465565 71.196746-86.343505 99.977915 7.561746 16.659108 24.220854 24.988662 49.977324 24.988662 27.268819 0 50.745132-3.76924 70.452205-11.354253z m-86.343505-27.268819c7.561746-15.123492 27.268819-31.805867 59.074686-49.977324 4.537048 0 11.726523 0.372271 21.568426 1.140079a325.271409 325.271409 0 0 0 23.87185 1.116812c-18.171457 18.194724-31.061326 31.829134-38.623071 40.903228-24.244121 6.049397-40.903229 9.074095-50.000591 9.074096h-9.074095l-6.817205-2.256891z m815.69135-281.762286c69.684397-39.367613 98.465565-73.453637 86.343505-102.234805-6.049397-15.123492-22.708505-22.708505-49.977324-22.708505a221.268319 221.268319 0 0 0-70.452205 11.354252c-13.63441 18.171457-30.665788 37.110722-51.117403 56.794529-20.451614 19.707073-37.482993 34.853832-51.117402 45.440276l-22.731772 15.914567c7.585013-1.512349 17.054645-3.024698 28.408898-4.537048 11.354252-1.512349 32.573675-3.024698 63.611733-4.560314 31.061326-1.512349 53.39756 0 67.03197 4.560314z m36.366181-88.600396h9.074095l6.817205 2.280157c-7.561746 15.123492-27.268819 31.805867-59.074686 49.977324-4.537048 0-11.726523-0.372271-21.568426-1.140078a325.271409 325.271409 0 0 0-23.87185-1.116812c10.609711-10.609711 23.49958-25.011929 38.623071-43.183386 18.194724-4.537048 34.853832-6.817205 50.000591-6.817205z"
                   horiz-adv-x="1024"/>


            <glyph glyph-name="nav1" unicode="&#59273;"
                   d="M913.709081 440.860009H109.014856c-25.146727 0-44.705178-19.558451-44.705178-44.705178s19.558451-44.705178 44.705178-44.705178h804.694225c25.146727 0 44.705178 19.558451 44.705178 44.705178 0 25.146727-19.557428 44.705178-44.705178 44.705178zM109.014856 624.953817h804.694225c25.146727 0 44.705178 19.558451 44.705178 44.705178s-19.558451 44.705178-44.705178 44.705178H109.014856c-25.146727 0-44.705178-19.558451-44.705178-44.705178 0-25.14775 19.558451-44.705178 44.705178-44.705178zM913.709081 142.113951H109.014856c-25.146727 0-44.705178-19.558451-44.705178-44.705178s19.558451-44.705178 44.705178-44.705178h804.694225c25.146727 0 44.705178 19.558451 44.705178 44.705178s-19.557428 44.705178-44.705178 44.705178z"
                   horiz-adv-x="1024"/>


            <glyph glyph-name="mail" unicode="&#59593;"
                   d="M981.333333 640.8c-0.533333 70.133333-57.6 127.2-128 127.2H170.666667c-70.4 0-127.466667-56.8-128-127.2V128c0-70.666667 57.333333-128 128-128h682.666666c70.666667 0 128 57.333333 128 128V639.466667v1.333333zM170.666667 682.666667h682.666666c16.8 0 31.2-9.6 38.133334-23.733334L512 393.333333 132.533333 658.933333c6.933333 14.133333 21.333333 23.733333 38.133334 23.733334z m682.666666-597.333334H170.666667c-23.466667 0-42.666667 19.2-42.666667 42.666667V558.133333l359.466667-251.733333c7.466667-5.066667 16-7.733333 24.533333-7.733333s17.066667 2.666667 24.533333 7.733333L896 558.133333V128c0-23.466667-19.2-42.666667-42.666667-42.666667z"
                   horiz-adv-x="1024"/>


            <glyph glyph-name="shoucang" unicode="&#58891;"
                   d="M752-43.2c-9.6 0-20.8 3.2-30.4 8l-208 104-209.6-104c-20.8-11.2-48-9.6-67.2 4.8-19.2 14.4-30.4 40-25.6 64l43.2 224L89.6 411.2C72 428.8 65.6 456 72 478.4c8 24 27.2 41.6 52.8 44.8l228.8 41.6 102.4 208c11.2 22.4 33.6 36.8 57.6 36.8s48-14.4 57.6-36.8l102.4-208 228.8-40c24-3.2 44.8-20.8 51.2-44.8 8-24 1.6-49.6-16-67.2L772.8 257.6l41.6-224c4.8-25.6-6.4-49.6-25.6-64-9.6-8-22.4-12.8-36.8-12.8z"
                   horiz-adv-x="1024"/>


        </font>
</defs>
</svg>
